<?xml version="1.0" encoding="utf-8" ?>
<svg xmlns="http://www.w3.org/2000/svg" xmlns:xlink="http://www.w3.org/1999/xlink" width="323" height="390">
	<path fill="none" stroke="black" vector-effect="non-scaling-stroke" stroke-width="1" stroke-miterlimit="4" d="M75 52.5L75 67.5"/>
	<path fill="none" stroke="black" vector-effect="non-scaling-stroke" stroke-width="1" stroke-miterlimit="4" d="M97.5 52.5L97.5 67.5"/>
	<path fill="none" stroke="black" vector-effect="non-scaling-stroke" stroke-width="1" stroke-miterlimit="4" d="M120 52.5L120 67.5"/>
	<path fill="none" stroke="black" vector-effect="non-scaling-stroke" stroke-width="1" stroke-miterlimit="4" d="M142.5 52.5L142.5 67.5"/>
	<path fill="none" stroke="black" vector-effect="non-scaling-stroke" stroke-width="1" stroke-miterlimit="4" d="M285 339L315.75 339Q315.897 339 316.044 338.986Q316.191 338.971 316.335 338.942Q316.48 338.914 316.621 338.871Q316.762 338.828 316.898 338.772Q317.034 338.715 317.164 338.646Q317.294 338.576 317.417 338.494Q317.539 338.413 317.653 338.319Q317.767 338.226 317.871 338.121Q317.975 338.017 318.069 337.903Q318.163 337.789 318.244 337.667Q318.326 337.544 318.396 337.414Q318.465 337.284 318.522 337.148Q318.578 337.012 318.621 336.871Q318.664 336.73 318.692 336.585Q318.721 336.441 318.736 336.294Q318.75 336.147 318.75 336L318.75 29.25Q318.75 29.1026 318.736 28.9559Q318.721 28.8093 318.692 28.6647Q318.664 28.5202 318.621 28.3791Q318.578 28.2381 318.522 28.1019Q318.465 27.9658 318.396 27.8358Q318.326 27.7058 318.244 27.5833Q318.163 27.4607 318.069 27.3468Q317.975 27.2329 317.871 27.1287Q317.767 27.0245 317.653 26.931Q317.539 26.8375 317.417 26.7556Q317.294 26.6737 317.164 26.6042Q317.034 26.5348 316.898 26.4784Q316.762 26.422 316.621 26.3792Q316.48 26.3364 316.335 26.3076Q316.191 26.2789 316.044 26.2644Q315.897 26.25 315.75 26.25L210.48 26.25"/>
	<path fill="none" stroke="black" vector-effect="non-scaling-stroke" stroke-width="1" stroke-miterlimit="4" d="M251.25 322.5L255.75 322.5Q255.897 322.5 256.044 322.514Q256.191 322.529 256.335 322.558Q256.48 322.586 256.621 322.629Q256.762 322.672 256.898 322.728Q257.034 322.785 257.164 322.854Q257.294 322.924 257.417 323.006Q257.539 323.087 257.653 323.181Q257.767 323.274 257.871 323.379Q257.976 323.483 258.069 323.597Q258.163 323.711 258.244 323.833Q258.326 323.956 258.396 324.086Q258.465 324.216 258.522 324.352Q258.578 324.488 258.621 324.629Q258.664 324.77 258.692 324.915Q258.721 325.059 258.736 325.206Q258.75 325.353 258.75 325.5L258.75 332.25Q258.75 332.397 258.764 332.544Q258.779 332.691 258.808 332.835Q258.836 332.98 258.879 333.121Q258.922 333.262 258.978 333.398Q259.035 333.534 259.104 333.664Q259.174 333.794 259.256 333.917Q259.337 334.039 259.431 334.153Q259.524 334.267 259.629 334.371Q259.733 334.476 259.847 334.569Q259.961 334.663 260.083 334.744Q260.206 334.826 260.336 334.896Q260.466 334.965 260.602 335.022Q260.738 335.078 260.879 335.121Q261.02 335.164 261.165 335.192Q261.309 335.221 261.456 335.236Q261.603 335.25 261.75 335.25L265.77 335.25"/>
	<path fill="none" stroke="black" vector-effect="non-scaling-stroke" stroke-width="1" stroke-miterlimit="4" d="M251.25 356.25L255.75 356.25Q255.897 356.25 256.044 356.236Q256.191 356.221 256.335 356.192Q256.48 356.164 256.621 356.121Q256.762 356.078 256.898 356.022Q257.034 355.965 257.164 355.896Q257.294 355.826 257.417 355.744Q257.539 355.663 257.653 355.569Q257.767 355.476 257.871 355.371Q257.976 355.267 258.069 355.153Q258.163 355.039 258.244 354.917Q258.326 354.794 258.396 354.664Q258.465 354.534 258.522 354.398Q258.578 354.262 258.621 354.121Q258.664 353.98 258.692 353.835Q258.721 353.691 258.736 353.544Q258.75 353.397 258.75 353.25L258.75 345.75Q258.75 345.603 258.764 345.456Q258.779 345.309 258.808 345.165Q258.836 345.02 258.879 344.879Q258.922 344.738 258.978 344.602Q259.035 344.466 259.104 344.336Q259.174 344.206 259.256 344.083Q259.337 343.961 259.431 343.847Q259.524 343.733 259.629 343.629Q259.733 343.524 259.847 343.431Q259.961 343.337 260.083 343.256Q260.206 343.174 260.336 343.104Q260.466 343.035 260.602 342.978Q260.738 342.922 260.879 342.879Q261.02 342.836 261.165 342.808Q261.309 342.779 261.456 342.764Q261.603 342.75 261.75 342.75L265.77 342.75"/>
	<path fill="none" stroke="black" vector-effect="non-scaling-stroke" stroke-width="1" stroke-miterlimit="4" d="M251.25 288.75L258.75 288.75"/>
	<path fill="none" stroke="black" vector-effect="non-scaling-stroke" stroke-width="1" stroke-miterlimit="4" d="M67.997 326.25L232.5 326.25"/>
	<path fill="none" stroke="black" vector-effect="non-scaling-stroke" stroke-width="1" stroke-miterlimit="4" d="M210 292.5L225 292.5"/>
	<path fill="none" stroke="black" vector-effect="non-scaling-stroke" stroke-width="1" stroke-miterlimit="4" d="M225 292.5L232.5 292.5"/>
	<path fill="none" stroke="black" vector-effect="non-scaling-stroke" stroke-width="1" stroke-miterlimit="4" d="M225 292.5L225 315.75Q225 315.897 225.014 316.044Q225.029 316.191 225.058 316.335Q225.086 316.48 225.129 316.621Q225.172 316.762 225.228 316.898Q225.285 317.034 225.354 317.164Q225.424 317.294 225.506 317.417Q225.587 317.539 225.681 317.653Q225.774 317.767 225.879 317.871Q225.983 317.975 226.097 318.069Q226.211 318.163 226.333 318.244Q226.456 318.326 226.586 318.396Q226.716 318.465 226.852 318.522Q226.988 318.578 227.129 318.621Q227.27 318.664 227.415 318.692Q227.559 318.721 227.706 318.736Q227.853 318.75 228 318.75L232.5 318.75"/>
	<path fill="none" stroke="black" vector-effect="non-scaling-stroke" stroke-width="1" stroke-miterlimit="4" d="M210 360L232.5 360"/>
	<path fill="none" stroke="black" vector-effect="non-scaling-stroke" stroke-width="1" stroke-miterlimit="4" d="M67.997 258.75L214.5 258.75Q214.647 258.75 214.794 258.764Q214.941 258.779 215.085 258.808Q215.23 258.836 215.371 258.879Q215.512 258.922 215.648 258.978Q215.784 259.035 215.914 259.104Q216.044 259.174 216.167 259.256Q216.289 259.337 216.403 259.431Q216.517 259.524 216.621 259.629Q216.726 259.733 216.819 259.847Q216.913 259.961 216.994 260.083Q217.076 260.206 217.146 260.336Q217.215 260.466 217.272 260.602Q217.328 260.738 217.371 260.879Q217.414 261.02 217.442 261.165Q217.471 261.309 217.486 261.456Q217.5 261.603 217.5 261.75L217.5 285"/>
	<path fill="none" stroke="black" vector-effect="non-scaling-stroke" stroke-width="1" stroke-miterlimit="4" d="M217.5 285L232.5 285"/>
	<path fill="none" stroke="black" vector-effect="non-scaling-stroke" stroke-width="1" stroke-miterlimit="4" d="M217.5 285L217.5 349.5Q217.5 349.647 217.514 349.794Q217.529 349.941 217.558 350.085Q217.586 350.23 217.629 350.371Q217.672 350.512 217.728 350.648Q217.785 350.784 217.854 350.914Q217.924 351.044 218.006 351.167Q218.087 351.289 218.181 351.403Q218.274 351.517 218.379 351.621Q218.483 351.726 218.597 351.819Q218.711 351.913 218.833 351.994Q218.956 352.076 219.086 352.146Q219.216 352.215 219.352 352.272Q219.488 352.328 219.629 352.371Q219.77 352.414 219.915 352.442Q220.059 352.471 220.206 352.486Q220.353 352.5 220.5 352.5L232.5 352.5"/>
	<path fill="none" stroke="black" vector-effect="non-scaling-stroke" stroke-width="1" stroke-miterlimit="4" d="M54.003 131.25L191.25 131.25"/>
	<path fill="none" stroke="black" vector-effect="non-scaling-stroke" stroke-width="1" stroke-miterlimit="4" d="M210 225L258.75 225"/>
	<path fill="none" stroke="black" vector-effect="non-scaling-stroke" stroke-width="1" stroke-miterlimit="4" d="M54.003 210L100.313 210"/>
	<path fill="none" stroke="black" vector-effect="non-scaling-stroke" stroke-width="1" stroke-miterlimit="4" d="M100.313 210L153.75 210"/>
	<path fill="none" stroke="black" vector-effect="non-scaling-stroke" stroke-width="1" stroke-miterlimit="4" d="M100.313 210L100.313 277.5"/>
	<path fill="none" stroke="black" vector-effect="non-scaling-stroke" stroke-width="1" stroke-miterlimit="4" d="M100.313 277.5L153.75 277.5"/>
	<path fill="none" stroke="black" vector-effect="non-scaling-stroke" stroke-width="1" stroke-miterlimit="4" d="M100.313 277.5L100.313 342Q100.313 342.147 100.327 342.294Q100.341 342.441 100.37 342.585Q100.399 342.73 100.442 342.871Q100.484 343.012 100.541 343.148Q100.597 343.284 100.667 343.414Q100.736 343.544 100.818 343.667Q100.9 343.789 100.993 343.903Q101.087 344.017 101.191 344.121Q101.295 344.226 101.409 344.319Q101.523 344.413 101.646 344.494Q101.768 344.576 101.898 344.646Q102.028 344.715 102.164 344.772Q102.301 344.828 102.442 344.871Q102.583 344.914 102.727 344.942Q102.872 344.971 103.018 344.986Q103.165 345 103.313 345L153.75 345"/>
	<path fill="none" stroke="black" vector-effect="non-scaling-stroke" stroke-width="1" stroke-miterlimit="4" d="M54.003 168.75L91.6875 168.75Q91.8349 168.75 91.9816 168.764Q92.1282 168.779 92.2728 168.808Q92.4173 168.836 92.5583 168.879Q92.6994 168.922 92.8355 168.978Q92.9717 169.035 93.1017 169.104Q93.2317 169.174 93.3542 169.256Q93.4767 169.337 93.5907 169.431Q93.7046 169.524 93.8088 169.629Q93.913 169.733 94.0065 169.847Q94.1 169.961 94.1819 170.083Q94.2638 170.206 94.3333 170.336Q94.4027 170.466 94.4591 170.602Q94.5155 170.738 94.5583 170.879Q94.6011 171.02 94.6298 171.165Q94.6586 171.309 94.6731 171.456Q94.6875 171.603 94.6875 171.75L94.6875 228.75"/>
	<path fill="none" stroke="black" vector-effect="non-scaling-stroke" stroke-width="1" stroke-miterlimit="4" d="M94.6875 228.75L153.75 228.75"/>
	<path fill="none" stroke="black" vector-effect="non-scaling-stroke" stroke-width="1" stroke-miterlimit="4" d="M94.6875 228.75L94.6875 296.25"/>
	<path fill="none" stroke="black" vector-effect="non-scaling-stroke" stroke-width="1" stroke-miterlimit="4" d="M94.6875 296.25L153.75 296.25"/>
	<path fill="none" stroke="black" vector-effect="non-scaling-stroke" stroke-width="1" stroke-miterlimit="4" d="M94.6875 296.25L94.6875 360.75Q94.6875 360.897 94.702 361.044Q94.7164 361.191 94.7451 361.335Q94.7739 361.48 94.8167 361.621Q94.8595 361.762 94.9158 361.898Q94.9722 362.034 95.0417 362.164Q95.1112 362.294 95.1931 362.417Q95.275 362.539 95.3685 362.653Q95.462 362.767 95.5662 362.871Q95.6704 362.976 95.7843 363.069Q95.8982 363.163 96.0208 363.244Q96.1433 363.326 96.2733 363.396Q96.4033 363.465 96.5394 363.522Q96.6756 363.578 96.8166 363.621Q96.9577 363.664 97.1022 363.692Q97.2468 363.721 97.3934 363.736Q97.5401 363.75 97.6875 363.75L153.75 363.75"/>
	<path fill="none" stroke="black" vector-effect="non-scaling-stroke" stroke-width="1" stroke-miterlimit="4" d="M54.003 150L89.0625 150"/>
	<path fill="none" stroke="black" vector-effect="non-scaling-stroke" stroke-width="1" stroke-miterlimit="4" d="M89.0625 150L191.25 150"/>
	<path fill="none" stroke="black" vector-effect="non-scaling-stroke" stroke-width="1" stroke-miterlimit="4" d="M89.0625 150L89.0625 191.25"/>
	<path fill="none" stroke="black" vector-effect="non-scaling-stroke" stroke-width="1" stroke-miterlimit="4" d="M89.0625 191.25L153.75 191.25"/>
	<path fill="none" stroke="black" vector-effect="non-scaling-stroke" stroke-width="1" stroke-miterlimit="4" d="M89.0625 191.25L89.0625 247.5"/>
	<path fill="none" stroke="black" vector-effect="non-scaling-stroke" stroke-width="1" stroke-miterlimit="4" d="M89.0625 247.5L153.75 247.5"/>
	<path fill="none" stroke="black" vector-effect="non-scaling-stroke" stroke-width="1" stroke-miterlimit="4" d="M89.0625 247.5L89.0625 315"/>
	<path fill="none" stroke="black" vector-effect="non-scaling-stroke" stroke-width="1" stroke-miterlimit="4" d="M89.0625 315L153.75 315"/>
	<path fill="none" stroke="black" vector-effect="non-scaling-stroke" stroke-width="1" stroke-miterlimit="4" d="M89.0625 315L89.0625 379.5Q89.0625 379.647 89.077 379.794Q89.0914 379.941 89.1201 380.085Q89.1489 380.23 89.1917 380.371Q89.2345 380.512 89.2908 380.648Q89.3472 380.784 89.4167 380.914Q89.4862 381.044 89.5681 381.167Q89.65 381.289 89.7435 381.403Q89.837 381.517 89.9412 381.621Q90.0454 381.726 90.1593 381.819Q90.2732 381.913 90.3958 381.994Q90.5183 382.076 90.6483 382.146Q90.7783 382.215 90.9144 382.272Q91.0506 382.328 91.1916 382.371Q91.3327 382.414 91.4772 382.442Q91.6218 382.471 91.7684 382.486Q91.9151 382.5 92.0625 382.5L153.75 382.5"/>
	<path fill="none" stroke="black" vector-effect="non-scaling-stroke" stroke-width="1" stroke-miterlimit="4" d="M172.5 206.25L177 206.25Q177.147 206.25 177.294 206.264Q177.441 206.279 177.585 206.308Q177.73 206.336 177.871 206.379Q178.012 206.422 178.148 206.478Q178.284 206.535 178.414 206.604Q178.544 206.674 178.667 206.756Q178.789 206.837 178.903 206.931Q179.017 207.024 179.121 207.129Q179.226 207.233 179.319 207.347Q179.413 207.461 179.494 207.583Q179.576 207.706 179.646 207.836Q179.715 207.966 179.772 208.102Q179.828 208.238 179.871 208.379Q179.914 208.52 179.942 208.665Q179.971 208.809 179.986 208.956Q180 209.103 180 209.25L180 217Q180 217.147 180.014 217.294Q180.029 217.441 180.058 217.585Q180.086 217.73 180.129 217.871Q180.172 218.012 180.228 218.148Q180.285 218.284 180.354 218.414Q180.424 218.544 180.506 218.667Q180.587 218.789 180.681 218.903Q180.774 219.017 180.879 219.121Q180.983 219.226 181.097 219.319Q181.211 219.413 181.333 219.494Q181.456 219.576 181.586 219.646Q181.716 219.715 181.852 219.772Q181.988 219.828 182.129 219.871Q182.27 219.914 182.415 219.942Q182.559 219.971 182.706 219.986Q182.853 220 183 220L190.392 220"/>
	<path fill="none" stroke="black" vector-effect="non-scaling-stroke" stroke-width="1" stroke-miterlimit="4" d="M172.5 225L191.25 225"/>
	<path fill="none" stroke="black" vector-effect="non-scaling-stroke" stroke-width="1" stroke-miterlimit="4" d="M172.5 243.75L177 243.75Q177.147 243.75 177.294 243.736Q177.441 243.721 177.585 243.692Q177.73 243.664 177.871 243.621Q178.012 243.578 178.148 243.522Q178.284 243.465 178.414 243.396Q178.544 243.326 178.667 243.244Q178.789 243.163 178.903 243.069Q179.017 242.976 179.121 242.871Q179.226 242.767 179.319 242.653Q179.413 242.539 179.494 242.417Q179.576 242.294 179.646 242.164Q179.715 242.034 179.772 241.898Q179.828 241.762 179.871 241.621Q179.914 241.48 179.942 241.335Q179.971 241.191 179.986 241.044Q180 240.897 180 240.75L180 233Q180 232.853 180.014 232.706Q180.029 232.559 180.058 232.415Q180.086 232.27 180.129 232.129Q180.172 231.988 180.228 231.852Q180.285 231.716 180.354 231.586Q180.424 231.456 180.506 231.333Q180.587 231.211 180.681 231.097Q180.774 230.983 180.879 230.879Q180.983 230.774 181.097 230.681Q181.211 230.587 181.333 230.506Q181.456 230.424 181.586 230.354Q181.716 230.285 181.852 230.228Q181.988 230.172 182.129 230.129Q182.27 230.086 182.415 230.058Q182.559 230.029 182.706 230.014Q182.853 230 183 230L190.392 230"/>
	<path fill="none" stroke="black" vector-effect="non-scaling-stroke" stroke-width="1" stroke-miterlimit="4" d="M172.5 273.75L177 273.75Q177.147 273.75 177.294 273.764Q177.441 273.779 177.585 273.808Q177.73 273.836 177.871 273.879Q178.012 273.922 178.148 273.978Q178.284 274.035 178.414 274.104Q178.544 274.174 178.667 274.256Q178.789 274.337 178.903 274.431Q179.017 274.524 179.121 274.629Q179.226 274.733 179.319 274.847Q179.413 274.961 179.494 275.083Q179.576 275.206 179.646 275.336Q179.715 275.466 179.772 275.602Q179.828 275.738 179.871 275.879Q179.914 276.02 179.942 276.165Q179.971 276.309 179.986 276.456Q180 276.603 180 276.75L180 284.5Q180 284.647 180.014 284.794Q180.029 284.941 180.058 285.085Q180.086 285.23 180.129 285.371Q180.172 285.512 180.228 285.648Q180.285 285.784 180.354 285.914Q180.424 286.044 180.506 286.167Q180.587 286.289 180.681 286.403Q180.774 286.517 180.879 286.621Q180.983 286.726 181.097 286.819Q181.211 286.913 181.333 286.994Q181.456 287.076 181.586 287.146Q181.716 287.215 181.852 287.272Q181.988 287.328 182.129 287.371Q182.27 287.414 182.415 287.442Q182.559 287.471 182.706 287.486Q182.853 287.5 183 287.5L190.392 287.5"/>
	<path fill="none" stroke="black" vector-effect="non-scaling-stroke" stroke-width="1" stroke-miterlimit="4" d="M172.5 292.5L191.25 292.5"/>
	<path fill="none" stroke="black" vector-effect="non-scaling-stroke" stroke-width="1" stroke-miterlimit="4" d="M172.5 311.25L177 311.25Q177.147 311.25 177.294 311.236Q177.441 311.221 177.585 311.192Q177.73 311.164 177.871 311.121Q178.012 311.078 178.148 311.022Q178.284 310.965 178.414 310.896Q178.544 310.826 178.667 310.744Q178.789 310.663 178.903 310.569Q179.017 310.476 179.121 310.371Q179.226 310.267 179.319 310.153Q179.413 310.039 179.494 309.917Q179.576 309.794 179.646 309.664Q179.715 309.534 179.772 309.398Q179.828 309.262 179.871 309.121Q179.914 308.98 179.942 308.835Q179.971 308.691 179.986 308.544Q180 308.397 180 308.25L180 300.5Q180 300.353 180.014 300.206Q180.029 300.059 180.058 299.915Q180.086 299.77 180.129 299.629Q180.172 299.488 180.228 299.352Q180.285 299.216 180.354 299.086Q180.424 298.956 180.506 298.833Q180.587 298.711 180.681 298.597Q180.774 298.483 180.879 298.379Q180.983 298.274 181.097 298.181Q181.211 298.087 181.333 298.006Q181.456 297.924 181.586 297.854Q181.716 297.785 181.852 297.728Q181.988 297.672 182.129 297.629Q182.27 297.586 182.415 297.558Q182.559 297.529 182.706 297.514Q182.853 297.5 183 297.5L190.392 297.5"/>
	<path fill="none" stroke="black" vector-effect="non-scaling-stroke" stroke-width="1" stroke-miterlimit="4" d="M172.5 341.25L177 341.25Q177.147 341.25 177.294 341.264Q177.441 341.279 177.585 341.308Q177.73 341.336 177.871 341.379Q178.012 341.422 178.148 341.478Q178.284 341.535 178.414 341.604Q178.544 341.674 178.667 341.756Q178.789 341.837 178.903 341.931Q179.017 342.024 179.121 342.129Q179.226 342.233 179.319 342.347Q179.413 342.461 179.494 342.583Q179.576 342.706 179.646 342.836Q179.715 342.966 179.772 343.102Q179.828 343.238 179.871 343.379Q179.914 343.52 179.942 343.665Q179.971 343.809 179.986 343.956Q180 344.103 180 344.25L180 352Q180 352.147 180.014 352.294Q180.029 352.441 180.058 352.585Q180.086 352.73 180.129 352.871Q180.172 353.012 180.228 353.148Q180.285 353.284 180.354 353.414Q180.424 353.544 180.506 353.667Q180.587 353.789 180.681 353.903Q180.774 354.017 180.879 354.121Q180.983 354.225 181.097 354.319Q181.211 354.413 181.333 354.494Q181.456 354.576 181.586 354.646Q181.716 354.715 181.852 354.772Q181.988 354.828 182.129 354.871Q182.27 354.914 182.415 354.942Q182.559 354.971 182.706 354.986Q182.853 355 183 355L190.392 355"/>
	<path fill="none" stroke="black" vector-effect="non-scaling-stroke" stroke-width="1" stroke-miterlimit="4" d="M172.5 360L191.25 360"/>
	<path fill="none" stroke="black" vector-effect="non-scaling-stroke" stroke-width="1" stroke-miterlimit="4" d="M172.5 378.75L177 378.75Q177.147 378.75 177.294 378.736Q177.441 378.721 177.585 378.692Q177.73 378.664 177.871 378.621Q178.012 378.578 178.148 378.522Q178.284 378.465 178.414 378.396Q178.544 378.326 178.667 378.244Q178.789 378.162 178.903 378.069Q179.017 377.976 179.121 377.871Q179.226 377.767 179.319 377.653Q179.413 377.539 179.494 377.417Q179.576 377.294 179.646 377.164Q179.715 377.034 179.772 376.898Q179.828 376.762 179.871 376.621Q179.914 376.48 179.942 376.335Q179.971 376.191 179.986 376.044Q180 375.897 180 375.75L180 368Q180 367.853 180.014 367.706Q180.029 367.559 180.058 367.415Q180.086 367.27 180.129 367.129Q180.172 366.988 180.228 366.852Q180.285 366.716 180.354 366.586Q180.424 366.456 180.506 366.333Q180.587 366.211 180.681 366.097Q180.774 365.983 180.879 365.879Q180.983 365.774 181.097 365.681Q181.211 365.587 181.333 365.506Q181.456 365.424 181.586 365.354Q181.716 365.285 181.852 365.228Q181.988 365.172 182.129 365.129Q182.27 365.086 182.415 365.058Q182.559 365.029 182.706 365.014Q182.853 365 183 365L190.392 365"/>
	<path fill="none" stroke="black" vector-effect="non-scaling-stroke" stroke-width="1" stroke-miterlimit="4" d="M139.688 105L139.688 123.75"/>
	<path fill="none" stroke="black" vector-effect="non-scaling-stroke" stroke-width="1" stroke-miterlimit="4" d="M139.688 123.75L191.25 123.75"/>
	<path fill="none" stroke="black" vector-effect="non-scaling-stroke" stroke-width="1" stroke-miterlimit="4" d="M139.688 123.75L139.688 199.5Q139.688 199.647 139.702 199.794Q139.716 199.941 139.745 200.085Q139.774 200.23 139.817 200.371Q139.859 200.512 139.916 200.648Q139.972 200.784 140.042 200.914Q140.111 201.044 140.193 201.167Q140.275 201.289 140.368 201.403Q140.462 201.517 140.566 201.621Q140.67 201.726 140.784 201.819Q140.898 201.913 141.021 201.994Q141.143 202.076 141.273 202.146Q141.403 202.215 141.539 202.272Q141.676 202.328 141.817 202.371Q141.958 202.414 142.102 202.442Q142.247 202.471 142.393 202.486Q142.54 202.5 142.688 202.5L153.75 202.5"/>
	<path fill="none" stroke="black" vector-effect="non-scaling-stroke" stroke-width="1" stroke-miterlimit="4" d="M134.063 105L134.063 161.25"/>
	<path fill="none" stroke="black" vector-effect="non-scaling-stroke" stroke-width="1" stroke-miterlimit="4" d="M134.063 161.25L153.75 161.25"/>
	<path fill="none" stroke="black" vector-effect="non-scaling-stroke" stroke-width="1" stroke-miterlimit="4" d="M134.063 161.25L134.063 267Q134.063 267.147 134.077 267.294Q134.091 267.441 134.12 267.585Q134.149 267.73 134.192 267.871Q134.234 268.012 134.291 268.148Q134.347 268.284 134.417 268.414Q134.486 268.544 134.568 268.667Q134.65 268.789 134.743 268.903Q134.837 269.017 134.941 269.121Q135.045 269.226 135.159 269.319Q135.273 269.413 135.396 269.494Q135.518 269.576 135.648 269.646Q135.778 269.715 135.914 269.772Q136.051 269.828 136.192 269.871Q136.333 269.914 136.477 269.942Q136.622 269.971 136.768 269.986Q136.915 270 137.063 270L153.75 270"/>
	<path fill="none" stroke="black" vector-effect="non-scaling-stroke" stroke-width="1" stroke-miterlimit="4" d="M100.313 131.25L100.313 165.75Q100.313 165.897 100.327 166.044Q100.341 166.191 100.37 166.335Q100.399 166.48 100.442 166.621Q100.484 166.762 100.541 166.898Q100.597 167.034 100.667 167.164Q100.736 167.294 100.818 167.417Q100.9 167.539 100.993 167.653Q101.087 167.767 101.191 167.871Q101.295 167.976 101.409 168.069Q101.523 168.163 101.646 168.244Q101.768 168.326 101.898 168.396Q102.028 168.465 102.164 168.522Q102.301 168.578 102.442 168.621Q102.583 168.664 102.727 168.692Q102.872 168.721 103.018 168.736Q103.165 168.75 103.313 168.75L153.75 168.75"/>
	<path fill="none" stroke="black" vector-effect="non-scaling-stroke" stroke-width="1" stroke-miterlimit="4" d="M128.438 105L128.438 142.5"/>
	<path fill="none" stroke="black" vector-effect="non-scaling-stroke" stroke-width="1" stroke-miterlimit="4" d="M128.438 142.5L191.25 142.5"/>
	<path fill="none" stroke="black" vector-effect="non-scaling-stroke" stroke-width="1" stroke-miterlimit="4" d="M128.438 142.5L128.438 221.25"/>
	<path fill="none" stroke="black" vector-effect="non-scaling-stroke" stroke-width="1" stroke-miterlimit="4" d="M128.438 221.25L153.75 221.25"/>
	<path fill="none" stroke="black" vector-effect="non-scaling-stroke" stroke-width="1" stroke-miterlimit="4" d="M128.438 221.25L128.438 334.5Q128.438 334.647 128.452 334.794Q128.466 334.941 128.495 335.085Q128.524 335.23 128.567 335.371Q128.609 335.512 128.666 335.648Q128.722 335.784 128.792 335.914Q128.861 336.044 128.943 336.167Q129.025 336.289 129.118 336.403Q129.212 336.517 129.316 336.621Q129.42 336.726 129.534 336.819Q129.648 336.913 129.771 336.994Q129.893 337.076 130.023 337.146Q130.153 337.215 130.289 337.272Q130.426 337.328 130.567 337.371Q130.708 337.414 130.852 337.442Q130.997 337.471 131.143 337.486Q131.29 337.5 131.438 337.5L153.75 337.5"/>
	<path fill="none" stroke="black" vector-effect="non-scaling-stroke" stroke-width="1" stroke-miterlimit="4" d="M122.813 105L122.813 183.75"/>
	<path fill="none" stroke="black" vector-effect="non-scaling-stroke" stroke-width="1" stroke-miterlimit="4" d="M122.813 183.75L153.75 183.75"/>
	<path fill="none" stroke="black" vector-effect="non-scaling-stroke" stroke-width="1" stroke-miterlimit="4" d="M122.813 183.75L122.813 285.75Q122.813 285.897 122.827 286.044Q122.841 286.191 122.87 286.335Q122.899 286.48 122.942 286.621Q122.984 286.762 123.041 286.898Q123.097 287.034 123.167 287.164Q123.236 287.294 123.318 287.417Q123.4 287.539 123.493 287.653Q123.587 287.767 123.691 287.871Q123.795 287.975 123.909 288.069Q124.023 288.163 124.146 288.244Q124.268 288.326 124.398 288.396Q124.528 288.465 124.664 288.522Q124.801 288.578 124.942 288.621Q125.083 288.664 125.227 288.692Q125.372 288.721 125.518 288.736Q125.665 288.75 125.813 288.75L153.75 288.75"/>
	<path fill="none" stroke="black" vector-effect="non-scaling-stroke" stroke-width="1" stroke-miterlimit="4" d="M117.188 105L117.188 240"/>
	<path fill="none" stroke="black" vector-effect="non-scaling-stroke" stroke-width="1" stroke-miterlimit="4" d="M117.188 240L153.75 240"/>
	<path fill="none" stroke="black" vector-effect="non-scaling-stroke" stroke-width="1" stroke-miterlimit="4" d="M117.188 240L117.188 353.25Q117.188 353.397 117.202 353.544Q117.216 353.691 117.245 353.835Q117.274 353.98 117.317 354.121Q117.359 354.262 117.416 354.398Q117.472 354.534 117.542 354.664Q117.611 354.794 117.693 354.917Q117.775 355.039 117.868 355.153Q117.962 355.267 118.066 355.371Q118.17 355.476 118.284 355.569Q118.398 355.663 118.521 355.744Q118.643 355.826 118.773 355.896Q118.903 355.965 119.039 356.022Q119.176 356.078 119.317 356.121Q119.458 356.164 119.602 356.192Q119.747 356.221 119.893 356.236Q120.04 356.25 120.188 356.25L153.75 356.25"/>
	<path fill="none" stroke="black" vector-effect="non-scaling-stroke" stroke-width="1" stroke-miterlimit="4" d="M111.563 105L111.563 304.5Q111.563 304.647 111.577 304.794Q111.591 304.941 111.62 305.085Q111.649 305.23 111.692 305.371Q111.734 305.512 111.791 305.648Q111.847 305.784 111.917 305.914Q111.986 306.044 112.068 306.167Q112.15 306.289 112.243 306.403Q112.337 306.517 112.441 306.621Q112.545 306.725 112.659 306.819Q112.773 306.912 112.896 306.994Q113.018 307.076 113.148 307.146Q113.278 307.215 113.414 307.272Q113.551 307.328 113.692 307.371Q113.833 307.414 113.977 307.442Q114.122 307.471 114.268 307.486Q114.415 307.5 114.563 307.5L153.75 307.5"/>
	<path fill="none" stroke="black" vector-effect="non-scaling-stroke" stroke-width="1" stroke-miterlimit="4" d="M105.938 105L105.938 372Q105.938 372.147 105.952 372.294Q105.966 372.441 105.995 372.585Q106.024 372.73 106.067 372.871Q106.109 373.012 106.166 373.148Q106.222 373.284 106.292 373.414Q106.361 373.544 106.443 373.667Q106.525 373.789 106.618 373.903Q106.712 374.017 106.816 374.121Q106.92 374.226 107.034 374.319Q107.148 374.413 107.271 374.494Q107.393 374.576 107.523 374.646Q107.653 374.715 107.789 374.772Q107.926 374.828 108.067 374.871Q108.208 374.914 108.352 374.942Q108.497 374.971 108.643 374.986Q108.79 375 108.938 375L153.75 375"/>
	<path fill="none" stroke="black" vector-effect="non-scaling-stroke" stroke-width="1" stroke-miterlimit="4" d="M150.938 105L150.938 109.5Q150.938 109.647 150.952 109.794Q150.966 109.941 150.995 110.085Q151.024 110.23 151.067 110.371Q151.109 110.512 151.166 110.648Q151.222 110.784 151.292 110.914Q151.361 111.044 151.443 111.167Q151.525 111.289 151.618 111.403Q151.712 111.517 151.816 111.621Q151.92 111.726 152.034 111.819Q152.148 111.913 152.271 111.994Q152.393 112.076 152.523 112.146Q152.653 112.215 152.789 112.272Q152.926 112.328 153.067 112.371Q153.208 112.414 153.352 112.442Q153.497 112.471 153.643 112.486Q153.79 112.5 153.938 112.5L258.75 112.5"/>
	<path fill="none" stroke="black" vector-effect="non-scaling-stroke" stroke-width="1" stroke-miterlimit="4" d="M145.313 105L145.313 173.25Q145.313 173.397 145.327 173.544Q145.341 173.691 145.37 173.835Q145.399 173.98 145.442 174.121Q145.484 174.262 145.541 174.398Q145.597 174.534 145.667 174.664Q145.736 174.794 145.818 174.917Q145.9 175.039 145.993 175.153Q146.087 175.267 146.191 175.371Q146.295 175.476 146.409 175.569Q146.523 175.663 146.646 175.744Q146.768 175.826 146.898 175.896Q147.028 175.965 147.164 176.022Q147.301 176.078 147.442 176.121Q147.583 176.164 147.727 176.192Q147.872 176.221 148.018 176.236Q148.165 176.25 148.313 176.25L191.25 176.25"/>
	<path fill="none" stroke="black" vector-effect="non-scaling-stroke" stroke-width="1" stroke-miterlimit="4" d="M210 127.5L258.75 127.5"/>
	<path fill="none" stroke="black" vector-effect="non-scaling-stroke" stroke-width="1" stroke-miterlimit="4" d="M210 146.25L258.75 146.25"/>
	<path fill="none" stroke="black" vector-effect="non-scaling-stroke" stroke-width="1" stroke-miterlimit="4" d="M210 176.25L258.75 176.25"/>
	<path fill="none" stroke="black" vector-effect="non-scaling-stroke" stroke-width="1" stroke-miterlimit="4" d="M172.5 165L177 165Q177.147 165 177.294 165.014Q177.441 165.029 177.585 165.058Q177.73 165.086 177.871 165.129Q178.012 165.172 178.148 165.228Q178.284 165.285 178.414 165.354Q178.544 165.424 178.667 165.506Q178.789 165.587 178.903 165.681Q179.017 165.774 179.121 165.879Q179.226 165.983 179.319 166.097Q179.413 166.211 179.494 166.333Q179.576 166.456 179.646 166.586Q179.715 166.716 179.772 166.852Q179.828 166.988 179.871 167.129Q179.914 167.27 179.942 167.415Q179.971 167.559 179.986 167.706Q180 167.853 180 168L180 168.25Q180 168.397 180.014 168.544Q180.029 168.691 180.058 168.835Q180.086 168.98 180.129 169.121Q180.172 169.262 180.228 169.398Q180.285 169.534 180.354 169.664Q180.424 169.794 180.506 169.917Q180.587 170.039 180.681 170.153Q180.774 170.267 180.879 170.371Q180.983 170.476 181.097 170.569Q181.211 170.663 181.333 170.744Q181.456 170.826 181.586 170.896Q181.716 170.965 181.852 171.022Q181.988 171.078 182.129 171.121Q182.27 171.164 182.415 171.192Q182.559 171.221 182.706 171.236Q182.853 171.25 183 171.25L190.392 171.25"/>
	<path fill="none" stroke="black" vector-effect="non-scaling-stroke" stroke-width="1" stroke-miterlimit="4" d="M172.5 187.5L177 187.5Q177.147 187.5 177.294 187.486Q177.441 187.471 177.585 187.442Q177.73 187.414 177.871 187.371Q178.012 187.328 178.148 187.272Q178.284 187.215 178.414 187.146Q178.544 187.076 178.667 186.994Q178.789 186.913 178.903 186.819Q179.017 186.726 179.121 186.621Q179.226 186.517 179.319 186.403Q179.413 186.289 179.494 186.167Q179.576 186.044 179.646 185.914Q179.715 185.784 179.772 185.648Q179.828 185.512 179.871 185.371Q179.914 185.23 179.942 185.085Q179.971 184.941 179.986 184.794Q180 184.647 180 184.5L180 184.25Q180 184.103 180.014 183.956Q180.029 183.809 180.058 183.665Q180.086 183.52 180.129 183.379Q180.172 183.238 180.228 183.102Q180.285 182.966 180.354 182.836Q180.424 182.706 180.506 182.583Q180.587 182.461 180.681 182.347Q180.774 182.233 180.879 182.129Q180.983 182.024 181.097 181.931Q181.211 181.837 181.333 181.756Q181.456 181.674 181.586 181.604Q181.716 181.535 181.852 181.478Q181.988 181.422 182.129 181.379Q182.27 181.336 182.415 181.308Q182.559 181.279 182.706 181.264Q182.853 181.25 183 181.25L190.392 181.25"/>
	<path fill="none" stroke="black" vector-effect="non-scaling-stroke" stroke-width="1" stroke-miterlimit="4" d="M52.5 22.5L63.75 22.5"/>
	<path fill="none" stroke="black" vector-effect="non-scaling-stroke" stroke-width="1" stroke-miterlimit="4" d="M26.497 7.5L237.48 7.5Q237.627 7.5 237.774 7.51445Q237.921 7.52889 238.065 7.55764Q238.21 7.5864 238.351 7.62918Q238.492 7.67196 238.628 7.72836Q238.764 7.78476 238.894 7.85424Q239.024 7.92371 239.147 8.00559Q239.269 8.08747 239.383 8.18097Q239.497 8.27447 239.601 8.37868Q239.706 8.48289 239.799 8.59682Q239.893 8.71075 239.974 8.83329Q240.056 8.95583 240.126 9.08581Q240.195 9.21579 240.252 9.35195Q240.308 9.48811 240.351 9.62914Q240.394 9.77018 240.422 9.91473Q240.451 10.0593 240.466 10.2059Q240.48 10.3526 240.48 10.5L240.48 15.75Q240.48 15.8974 240.466 16.0441Q240.451 16.1907 240.422 16.3353Q240.394 16.4798 240.351 16.6209Q240.308 16.7619 240.252 16.898Q240.195 17.0342 240.126 17.1642Q240.056 17.2942 239.974 17.4167Q239.893 17.5393 239.799 17.6532Q239.706 17.7671 239.601 17.8713Q239.497 17.9755 239.383 18.069Q239.269 18.1625 239.147 18.2444Q239.024 18.3263 238.894 18.3958Q238.764 18.4652 238.628 18.5216Q238.492 18.578 238.351 18.6208Q238.21 18.6636 238.065 18.6924Q237.921 18.7211 237.774 18.7356Q237.627 18.75 237.48 18.75L210.48 18.75"/>
	<path fill="none" stroke="black" vector-effect="non-scaling-stroke" stroke-width="1" stroke-miterlimit="4" d="M191.25 22.5L153.75 22.5"/>
	<rect fill="none" stroke="black" vector-effect="non-scaling-stroke" stroke-width="1" stroke-linejoin="round" x="63.75" y="15" width="90" height="37.5"/>
	<text font-size="9" font-family="Sabon LT Pro" x="81.748001, 86.751999, 89.749001, 95.248001, 97.75, 100.747, 103.249, 109.747, 114.75101, 119.755, 124.759, 127.75601, 131.75201, " y="36.75, ">
			4-Bit Counter
	</text>
	<text font-size="7.2000003" font-family="Sabon LT Pro" x="65.75, 70.948402, 72.949997, " y="25.5, ">
			Clk
	</text>
	<text font-size="7.2000003" font-family="Sabon LT Pro" x="134.7532, 139.9516, 141.9532, 145.15001, 148.75, " y="25.5, ">
			Clear
	</text>
	<text font-size="7.2000003" font-family="Sabon LT Pro" x="70.5, " y="48.5, ">
			Q
	</text>
	<text font-size="4.6799998" font-family="Sabon LT Pro" x="76.5, " y="49.436001, ">
			3
	</text>
	<text font-size="7.2000003" font-family="Sabon LT Pro" x="93, " y="48.5, ">
			Q
	</text>
	<text font-size="4.6799998" font-family="Sabon LT Pro" x="99, " y="49.436001, ">
			2
	</text>
	<text font-size="7.2000003" font-family="Sabon LT Pro" x="115.5, " y="48.5, ">
			Q
	</text>
	<text font-size="4.6799998" font-family="Sabon LT Pro" x="121.5, " y="49.436001, ">
			1
	</text>
	<text font-size="7.2000003" font-family="Sabon LT Pro" x="138, " y="48.5, ">
			Q
	</text>
	<text font-size="4.6799998" font-family="Sabon LT Pro" x="144, " y="49.436001, ">
			0
	</text>
	<rect fill="none" stroke="black" vector-effect="non-scaling-stroke" stroke-width="1" stroke-linejoin="round" x="63.75" y="67.5" width="90" height="37.5"/>
	<text font-size="9" font-family="Sabon LT Pro" x="76.496498, 81.500496, 84.497498, 87.494499, 92.498497, 95.495499, 100.4995, 105.50349, 108.0055, 115.0075, 119.00349, 122.9995, 128.00349, 133.00751, 137.00349, " y="89.75, ">
			4-to-16 Decoder
	</text>
	<text font-size="7.2000003" font-family="Sabon LT Pro" x="71, " y="74.5, ">
			D
	</text>
	<text font-size="4.6799998" font-family="Sabon LT Pro" x="76, " y="75.435997, ">
			3
	</text>
	<text font-size="7.2000003" font-family="Sabon LT Pro" x="93.5, " y="74.5, ">
			D
	</text>
	<text font-size="4.6799998" font-family="Sabon LT Pro" x="98.5, " y="75.435997, ">
			2
	</text>
	<text font-size="7.2000003" font-family="Sabon LT Pro" x="116, " y="74.5, ">
			D
	</text>
	<text font-size="4.6799998" font-family="Sabon LT Pro" x="121, " y="75.435997, ">
			1
	</text>
	<text font-size="7.2000003" font-family="Sabon LT Pro" x="138.5, " y="74.5, ">
			D
	</text>
	<text font-size="4.6799998" font-family="Sabon LT Pro" x="143.5, " y="75.435997, ">
			0
	</text>
	<text font-size="7.2000003" font-family="Sabon LT Pro" x="77.623398, 79.625, 81.626595, " y="103, ">
			...
	</text>
	<text font-size="7.2000003" font-family="Sabon LT Pro" x="98.3125, " y="103, ">
			9
	</text>
	<text font-size="7.2000003" font-family="Sabon LT Pro" x="103.9375, " y="103, ">
			8
	</text>
	<text font-size="7.2000003" font-family="Sabon LT Pro" x="109.5625, " y="103, ">
			7
	</text>
	<text font-size="7.2000003" font-family="Sabon LT Pro" x="115.1875, " y="103, ">
			6
	</text>
	<text font-size="7.2000003" font-family="Sabon LT Pro" x="120.8125, " y="103, ">
			5
	</text>
	<text font-size="7.2000003" font-family="Sabon LT Pro" x="126.4375, " y="103, ">
			4
	</text>
	<text font-size="7.2000003" font-family="Sabon LT Pro" x="132.0625, " y="103, ">
			3
	</text>
	<text font-size="7.2000003" font-family="Sabon LT Pro" x="137.6875, " y="103, ">
			2
	</text>
	<text font-size="7.2000003" font-family="Sabon LT Pro" x="143.3125, " y="103, ">
			1
	</text>
	<text font-size="7.2000003" font-family="Sabon LT Pro" x="148.9375, " y="103, ">
			0
	</text>
	<path fill="none" stroke="black" vector-effect="non-scaling-stroke" stroke-width="1" stroke-linejoin="round" d="M191.25 127.5L191.25 120L202.5 120Q202.684 120 202.868 120.009Q203.052 120.018 203.235 120.036Q203.418 120.054 203.6 120.081Q203.783 120.108 203.963 120.144Q204.144 120.18 204.322 120.225Q204.501 120.27 204.677 120.323Q204.853 120.376 205.027 120.438Q205.2 120.5 205.37 120.571Q205.54 120.641 205.707 120.72Q205.873 120.799 206.035 120.886Q206.198 120.972 206.356 121.067Q206.514 121.162 206.667 121.264Q206.82 121.366 206.968 121.476Q207.116 121.586 207.258 121.702Q207.4 121.819 207.537 121.943Q207.673 122.067 207.803 122.197Q207.933 122.327 208.057 122.463Q208.181 122.6 208.298 122.742Q208.414 122.884 208.524 123.032Q208.634 123.18 208.736 123.333Q208.838 123.486 208.933 123.644Q209.028 123.802 209.114 123.965Q209.201 124.127 209.28 124.293Q209.359 124.46 209.429 124.63Q209.5 124.8 209.562 124.973Q209.624 125.147 209.677 125.323Q209.73 125.499 209.775 125.678Q209.82 125.856 209.856 126.037Q209.892 126.217 209.919 126.4Q209.946 126.582 209.964 126.765Q209.982 126.948 209.991 127.132Q210 127.316 210 127.5Q210 127.684 209.991 127.868Q209.982 128.052 209.964 128.235Q209.946 128.418 209.919 128.6Q209.892 128.783 209.856 128.963Q209.82 129.144 209.775 129.322Q209.73 129.501 209.677 129.677Q209.624 129.853 209.562 130.027Q209.5 130.2 209.429 130.37Q209.359 130.54 209.28 130.707Q209.201 130.873 209.114 131.035Q209.028 131.198 208.933 131.356Q208.838 131.514 208.736 131.667Q208.634 131.82 208.524 131.968Q208.414 132.116 208.298 132.258Q208.181 132.4 208.057 132.537Q207.933 132.673 207.803 132.803Q207.673 132.933 207.537 133.057Q207.4 133.181 207.258 133.298Q207.116 133.414 206.968 133.524Q206.82 133.634 206.667 133.736Q206.514 133.838 206.356 133.933Q206.198 134.028 206.035 134.114Q205.873 134.201 205.707 134.28Q205.54 134.359 205.37 134.429Q205.2 134.5 205.027 134.562Q204.853 134.624 204.677 134.677Q204.501 134.73 204.322 134.775Q204.144 134.82 203.963 134.856Q203.783 134.892 203.6 134.919Q203.418 134.946 203.235 134.964Q203.052 134.982 202.868 134.991Q202.684 135 202.5 135L191.25 135L191.25 127.5Z"/>
	<path fill="none" stroke="black" vector-effect="non-scaling-stroke" stroke-width="1" stroke-linejoin="round" d="M191.25 146.25L191.25 138.75L202.5 138.75Q202.684 138.75 202.868 138.759Q203.052 138.768 203.235 138.786Q203.418 138.804 203.6 138.831Q203.783 138.858 203.963 138.894Q204.144 138.93 204.322 138.975Q204.501 139.02 204.677 139.073Q204.853 139.126 205.027 139.188Q205.2 139.25 205.37 139.321Q205.54 139.391 205.707 139.47Q205.873 139.549 206.035 139.636Q206.198 139.722 206.356 139.817Q206.514 139.912 206.667 140.014Q206.82 140.116 206.968 140.226Q207.116 140.336 207.258 140.452Q207.4 140.569 207.537 140.693Q207.673 140.816 207.803 140.947Q207.933 141.077 208.057 141.213Q208.181 141.35 208.298 141.492Q208.414 141.634 208.524 141.782Q208.634 141.93 208.736 142.083Q208.838 142.236 208.933 142.394Q209.028 142.552 209.114 142.714Q209.201 142.877 209.28 143.043Q209.359 143.21 209.429 143.38Q209.5 143.55 209.562 143.723Q209.624 143.897 209.677 144.073Q209.73 144.249 209.775 144.428Q209.82 144.606 209.856 144.787Q209.892 144.967 209.919 145.15Q209.946 145.332 209.964 145.515Q209.982 145.698 209.991 145.882Q210 146.066 210 146.25Q210 146.434 209.991 146.618Q209.982 146.802 209.964 146.985Q209.946 147.168 209.919 147.35Q209.892 147.533 209.856 147.713Q209.82 147.894 209.775 148.072Q209.73 148.251 209.677 148.427Q209.624 148.603 209.562 148.777Q209.5 148.95 209.429 149.12Q209.359 149.29 209.28 149.457Q209.201 149.623 209.114 149.785Q209.028 149.948 208.933 150.106Q208.838 150.264 208.736 150.417Q208.634 150.57 208.524 150.718Q208.414 150.866 208.298 151.008Q208.181 151.15 208.057 151.287Q207.933 151.423 207.803 151.553Q207.673 151.683 207.537 151.807Q207.4 151.931 207.258 152.048Q207.116 152.164 206.968 152.274Q206.82 152.384 206.667 152.486Q206.514 152.588 206.356 152.683Q206.198 152.778 206.035 152.864Q205.873 152.951 205.707 153.03Q205.54 153.109 205.37 153.179Q205.2 153.25 205.027 153.312Q204.853 153.374 204.677 153.427Q204.501 153.48 204.322 153.525Q204.144 153.57 203.963 153.606Q203.783 153.642 203.6 153.669Q203.418 153.696 203.235 153.714Q203.052 153.732 202.868 153.741Q202.684 153.75 202.5 153.75L191.25 153.75L191.25 146.25Z"/>
	<path fill="none" stroke="black" vector-effect="non-scaling-stroke" stroke-width="1" stroke-linejoin="round" d="M189.225 168.75L197.025 168.75Q197.516 168.75 198.006 168.782Q198.496 168.814 198.983 168.878Q199.47 168.942 199.951 169.038Q200.433 169.134 200.907 169.261Q201.382 169.388 201.847 169.546Q202.312 169.704 202.765 169.892Q203.219 170.08 203.659 170.297Q204.1 170.514 204.525 170.76Q204.95 171.005 205.359 171.278Q205.767 171.551 206.156 171.85Q206.546 172.149 206.915 172.472Q207.284 172.796 207.632 173.143Q207.979 173.491 208.303 173.86Q208.626 174.229 208.925 174.619Q209.224 175.008 209.497 175.416Q209.77 175.825 210.015 176.25Q209.77 176.675 209.497 177.084Q209.224 177.492 208.925 177.881Q208.626 178.271 208.303 178.64Q207.979 179.009 207.632 179.357Q207.284 179.704 206.915 180.028Q206.546 180.351 206.156 180.65Q205.767 180.949 205.359 181.222Q204.95 181.495 204.525 181.74Q204.1 181.986 203.659 182.203Q203.219 182.42 202.765 182.608Q202.312 182.796 201.847 182.954Q201.382 183.112 200.907 183.239Q200.433 183.366 199.951 183.462Q199.47 183.558 198.983 183.622Q198.496 183.686 198.006 183.718Q197.516 183.75 197.025 183.75L189.225 183.75L189.24 183.75Q189.486 183.325 189.703 182.884Q189.92 182.444 190.108 181.99Q190.296 181.537 190.454 181.072Q190.612 180.607 190.739 180.132Q190.866 179.658 190.962 179.176Q191.058 178.695 191.122 178.208Q191.186 177.721 191.218 177.231Q191.25 176.741 191.25 176.25Q191.25 175.759 191.218 175.269Q191.186 174.779 191.122 174.292Q191.058 173.805 190.962 173.324Q190.866 172.842 190.739 172.368Q190.612 171.893 190.454 171.428Q190.296 170.963 190.108 170.51Q189.92 170.056 189.703 169.616Q189.486 169.175 189.24 168.75L189.225 168.75Z"/>
	<path fill="none" stroke="black" vector-effect="non-scaling-stroke" stroke-width="1" stroke-linejoin="round" d="M153.75 165L153.75 157.5L165 157.5Q165.184 157.5 165.368 157.509Q165.552 157.518 165.735 157.536Q165.918 157.554 166.1 157.581Q166.283 157.608 166.463 157.644Q166.644 157.68 166.822 157.725Q167.001 157.77 167.177 157.823Q167.353 157.876 167.527 157.938Q167.7 158 167.87 158.071Q168.04 158.141 168.207 158.22Q168.373 158.299 168.535 158.386Q168.698 158.472 168.856 158.567Q169.014 158.662 169.167 158.764Q169.32 158.866 169.468 158.976Q169.616 159.086 169.758 159.202Q169.9 159.319 170.037 159.443Q170.173 159.566 170.303 159.697Q170.433 159.827 170.557 159.963Q170.681 160.1 170.798 160.242Q170.914 160.384 171.024 160.532Q171.134 160.68 171.236 160.833Q171.338 160.986 171.433 161.144Q171.528 161.302 171.614 161.465Q171.701 161.627 171.78 161.793Q171.859 161.96 171.929 162.13Q172 162.3 172.062 162.473Q172.124 162.647 172.177 162.823Q172.23 162.999 172.275 163.178Q172.32 163.356 172.356 163.537Q172.392 163.717 172.419 163.9Q172.446 164.082 172.464 164.265Q172.482 164.448 172.491 164.632Q172.5 164.816 172.5 165Q172.5 165.184 172.491 165.368Q172.482 165.552 172.464 165.735Q172.446 165.918 172.419 166.1Q172.392 166.283 172.356 166.463Q172.32 166.644 172.275 166.822Q172.23 167.001 172.177 167.177Q172.124 167.353 172.062 167.527Q172 167.7 171.929 167.87Q171.859 168.04 171.78 168.207Q171.701 168.373 171.614 168.535Q171.528 168.698 171.433 168.856Q171.338 169.014 171.236 169.167Q171.134 169.32 171.024 169.468Q170.914 169.616 170.798 169.758Q170.681 169.9 170.557 170.037Q170.433 170.173 170.303 170.303Q170.173 170.433 170.037 170.557Q169.9 170.681 169.758 170.798Q169.616 170.914 169.468 171.024Q169.32 171.134 169.167 171.236Q169.014 171.338 168.856 171.433Q168.698 171.528 168.535 171.614Q168.373 171.701 168.207 171.78Q168.04 171.859 167.87 171.929Q167.7 172 167.527 172.062Q167.353 172.124 167.177 172.177Q167.001 172.23 166.822 172.275Q166.644 172.32 166.463 172.356Q166.283 172.392 166.1 172.419Q165.918 172.446 165.735 172.464Q165.552 172.482 165.368 172.491Q165.184 172.5 165 172.5L153.75 172.5L153.75 165Z"/>
	<path fill="none" stroke="black" vector-effect="non-scaling-stroke" stroke-width="1" stroke-linejoin="round" d="M153.75 187.5L153.75 180L165 180Q165.184 180 165.368 180.009Q165.552 180.018 165.735 180.036Q165.918 180.054 166.1 180.081Q166.283 180.108 166.463 180.144Q166.644 180.18 166.822 180.225Q167.001 180.27 167.177 180.323Q167.353 180.376 167.527 180.438Q167.7 180.5 167.87 180.571Q168.04 180.641 168.207 180.72Q168.373 180.799 168.535 180.886Q168.698 180.972 168.856 181.067Q169.014 181.162 169.167 181.264Q169.32 181.366 169.468 181.476Q169.616 181.586 169.758 181.702Q169.9 181.819 170.037 181.943Q170.173 182.067 170.303 182.197Q170.433 182.327 170.557 182.463Q170.681 182.6 170.798 182.742Q170.914 182.884 171.024 183.032Q171.134 183.18 171.236 183.333Q171.338 183.486 171.433 183.644Q171.528 183.802 171.614 183.965Q171.701 184.127 171.78 184.293Q171.859 184.46 171.929 184.63Q172 184.8 172.062 184.973Q172.124 185.147 172.177 185.323Q172.23 185.499 172.275 185.678Q172.32 185.856 172.356 186.037Q172.392 186.217 172.419 186.4Q172.446 186.582 172.464 186.765Q172.482 186.948 172.491 187.132Q172.5 187.316 172.5 187.5Q172.5 187.684 172.491 187.868Q172.482 188.052 172.464 188.235Q172.446 188.418 172.419 188.6Q172.392 188.783 172.356 188.963Q172.32 189.144 172.275 189.322Q172.23 189.501 172.177 189.677Q172.124 189.853 172.062 190.027Q172 190.2 171.929 190.37Q171.859 190.54 171.78 190.707Q171.701 190.873 171.614 191.035Q171.528 191.198 171.433 191.356Q171.338 191.514 171.236 191.667Q171.134 191.82 171.024 191.968Q170.914 192.116 170.798 192.258Q170.681 192.4 170.557 192.537Q170.433 192.673 170.303 192.803Q170.173 192.933 170.037 193.057Q169.9 193.181 169.758 193.298Q169.616 193.414 169.468 193.524Q169.32 193.634 169.167 193.736Q169.014 193.838 168.856 193.933Q168.698 194.028 168.535 194.114Q168.373 194.201 168.207 194.28Q168.04 194.359 167.87 194.429Q167.7 194.5 167.527 194.562Q167.353 194.624 167.177 194.677Q167.001 194.73 166.822 194.775Q166.644 194.82 166.463 194.856Q166.283 194.892 166.1 194.919Q165.918 194.946 165.735 194.964Q165.552 194.982 165.368 194.991Q165.184 195 165 195L153.75 195L153.75 187.5Z"/>
	<path fill="none" stroke="black" vector-effect="non-scaling-stroke" stroke-width="1" stroke-linejoin="round" d="M189.225 217.5L197.025 217.5Q197.516 217.5 198.006 217.532Q198.496 217.564 198.983 217.628Q199.47 217.692 199.951 217.788Q200.433 217.884 200.907 218.011Q201.382 218.138 201.847 218.296Q202.312 218.454 202.765 218.642Q203.219 218.83 203.659 219.047Q204.1 219.264 204.525 219.51Q204.95 219.755 205.359 220.028Q205.767 220.301 206.156 220.6Q206.546 220.899 206.915 221.222Q207.284 221.546 207.632 221.893Q207.979 222.241 208.303 222.61Q208.626 222.979 208.925 223.369Q209.224 223.758 209.497 224.166Q209.77 224.575 210.015 225Q209.77 225.425 209.497 225.834Q209.224 226.242 208.925 226.631Q208.626 227.021 208.303 227.39Q207.979 227.759 207.632 228.107Q207.284 228.454 206.915 228.778Q206.546 229.101 206.156 229.4Q205.767 229.699 205.359 229.972Q204.95 230.245 204.525 230.49Q204.1 230.736 203.659 230.953Q203.219 231.17 202.765 231.358Q202.312 231.546 201.847 231.704Q201.382 231.862 200.907 231.989Q200.433 232.116 199.951 232.212Q199.47 232.308 198.983 232.372Q198.496 232.436 198.006 232.468Q197.516 232.5 197.025 232.5L189.225 232.5L189.24 232.5Q189.486 232.075 189.703 231.634Q189.92 231.194 190.108 230.74Q190.296 230.287 190.454 229.822Q190.612 229.357 190.739 228.882Q190.866 228.408 190.962 227.926Q191.058 227.445 191.122 226.958Q191.186 226.471 191.218 225.981Q191.25 225.491 191.25 225Q191.25 224.509 191.218 224.019Q191.186 223.529 191.122 223.042Q191.058 222.555 190.962 222.074Q190.866 221.592 190.739 221.118Q190.612 220.643 190.454 220.178Q190.296 219.713 190.108 219.26Q189.92 218.806 189.703 218.366Q189.486 217.925 189.24 217.5L189.225 217.5Z"/>
	<path fill="none" stroke="black" vector-effect="non-scaling-stroke" stroke-width="1" stroke-linejoin="round" d="M153.75 225L153.75 217.5L165 217.5Q165.184 217.5 165.368 217.509Q165.552 217.518 165.735 217.536Q165.918 217.554 166.1 217.581Q166.283 217.608 166.463 217.644Q166.644 217.68 166.822 217.725Q167.001 217.769 167.177 217.823Q167.353 217.876 167.527 217.938Q167.7 218 167.87 218.071Q168.04 218.141 168.207 218.22Q168.373 218.299 168.535 218.386Q168.698 218.472 168.856 218.567Q169.014 218.662 169.167 218.764Q169.32 218.866 169.468 218.976Q169.616 219.086 169.758 219.202Q169.9 219.319 170.037 219.443Q170.173 219.566 170.303 219.697Q170.433 219.827 170.557 219.963Q170.681 220.1 170.798 220.242Q170.914 220.384 171.024 220.532Q171.134 220.68 171.236 220.833Q171.338 220.986 171.433 221.144Q171.528 221.302 171.614 221.465Q171.701 221.627 171.78 221.793Q171.859 221.96 171.929 222.13Q172 222.3 172.062 222.473Q172.124 222.647 172.177 222.823Q172.23 222.999 172.275 223.178Q172.32 223.356 172.356 223.537Q172.392 223.717 172.419 223.9Q172.446 224.082 172.464 224.265Q172.482 224.448 172.491 224.632Q172.5 224.816 172.5 225Q172.5 225.184 172.491 225.368Q172.482 225.552 172.464 225.735Q172.446 225.918 172.419 226.1Q172.392 226.283 172.356 226.463Q172.32 226.644 172.275 226.822Q172.23 227.001 172.177 227.177Q172.124 227.353 172.062 227.527Q172 227.7 171.929 227.87Q171.859 228.04 171.78 228.207Q171.701 228.373 171.614 228.535Q171.528 228.698 171.433 228.856Q171.338 229.014 171.236 229.167Q171.134 229.32 171.024 229.468Q170.914 229.616 170.798 229.758Q170.681 229.9 170.557 230.037Q170.433 230.173 170.303 230.303Q170.173 230.433 170.037 230.557Q169.9 230.681 169.758 230.798Q169.616 230.914 169.468 231.024Q169.32 231.134 169.167 231.236Q169.014 231.338 168.856 231.433Q168.698 231.528 168.535 231.614Q168.373 231.701 168.207 231.78Q168.04 231.859 167.87 231.929Q167.7 232 167.527 232.062Q167.353 232.124 167.177 232.177Q167.001 232.23 166.822 232.275Q166.644 232.32 166.463 232.356Q166.283 232.392 166.1 232.419Q165.918 232.446 165.735 232.464Q165.552 232.482 165.368 232.491Q165.184 232.5 165 232.5L153.75 232.5L153.75 225Z"/>
	<path fill="none" stroke="black" vector-effect="non-scaling-stroke" stroke-width="1" stroke-linejoin="round" d="M153.75 206.25L153.75 198.75L165 198.75Q165.184 198.75 165.368 198.759Q165.552 198.768 165.735 198.786Q165.918 198.804 166.1 198.831Q166.283 198.858 166.463 198.894Q166.644 198.93 166.822 198.975Q167.001 199.02 167.177 199.073Q167.353 199.126 167.527 199.188Q167.7 199.25 167.87 199.321Q168.04 199.391 168.207 199.47Q168.373 199.549 168.535 199.636Q168.698 199.722 168.856 199.817Q169.014 199.912 169.167 200.014Q169.32 200.116 169.468 200.226Q169.616 200.336 169.758 200.452Q169.9 200.569 170.037 200.693Q170.173 200.816 170.303 200.947Q170.433 201.077 170.557 201.213Q170.681 201.35 170.798 201.492Q170.914 201.634 171.024 201.782Q171.134 201.93 171.236 202.083Q171.338 202.236 171.433 202.394Q171.528 202.552 171.614 202.715Q171.701 202.877 171.78 203.043Q171.859 203.21 171.929 203.38Q172 203.55 172.062 203.723Q172.124 203.897 172.177 204.073Q172.23 204.249 172.275 204.428Q172.32 204.606 172.356 204.787Q172.392 204.967 172.419 205.15Q172.446 205.332 172.464 205.515Q172.482 205.698 172.491 205.882Q172.5 206.066 172.5 206.25Q172.5 206.434 172.491 206.618Q172.482 206.802 172.464 206.985Q172.446 207.168 172.419 207.35Q172.392 207.533 172.356 207.713Q172.32 207.894 172.275 208.072Q172.23 208.251 172.177 208.427Q172.124 208.603 172.062 208.777Q172 208.95 171.929 209.12Q171.859 209.29 171.78 209.457Q171.701 209.623 171.614 209.785Q171.528 209.948 171.433 210.106Q171.338 210.264 171.236 210.417Q171.134 210.57 171.024 210.718Q170.914 210.866 170.798 211.008Q170.681 211.15 170.557 211.287Q170.433 211.423 170.303 211.553Q170.173 211.683 170.037 211.807Q169.9 211.931 169.758 212.048Q169.616 212.164 169.468 212.274Q169.32 212.384 169.167 212.486Q169.014 212.588 168.856 212.683Q168.698 212.778 168.535 212.864Q168.373 212.951 168.207 213.03Q168.04 213.109 167.87 213.179Q167.7 213.25 167.527 213.312Q167.353 213.374 167.177 213.427Q167.001 213.48 166.822 213.525Q166.644 213.57 166.463 213.606Q166.283 213.642 166.1 213.669Q165.918 213.696 165.735 213.714Q165.552 213.732 165.368 213.741Q165.184 213.75 165 213.75L153.75 213.75L153.75 206.25Z"/>
	<path fill="none" stroke="black" vector-effect="non-scaling-stroke" stroke-width="1" stroke-linejoin="round" d="M153.75 243.75L153.75 236.25L165 236.25Q165.184 236.25 165.368 236.259Q165.552 236.268 165.735 236.286Q165.918 236.304 166.1 236.331Q166.283 236.358 166.463 236.394Q166.644 236.43 166.822 236.475Q167.001 236.519 167.177 236.573Q167.353 236.626 167.527 236.688Q167.7 236.75 167.87 236.821Q168.04 236.891 168.207 236.97Q168.373 237.049 168.535 237.136Q168.698 237.222 168.856 237.317Q169.014 237.412 169.167 237.514Q169.32 237.616 169.468 237.726Q169.616 237.836 169.758 237.952Q169.9 238.069 170.037 238.193Q170.173 238.316 170.303 238.447Q170.433 238.577 170.557 238.713Q170.681 238.85 170.798 238.992Q170.914 239.134 171.024 239.282Q171.134 239.43 171.236 239.583Q171.338 239.736 171.433 239.894Q171.528 240.052 171.614 240.214Q171.701 240.377 171.78 240.543Q171.859 240.71 171.929 240.88Q172 241.05 172.062 241.223Q172.124 241.397 172.177 241.573Q172.23 241.749 172.275 241.928Q172.32 242.106 172.356 242.287Q172.392 242.467 172.419 242.65Q172.446 242.832 172.464 243.015Q172.482 243.198 172.491 243.382Q172.5 243.566 172.5 243.75Q172.5 243.934 172.491 244.118Q172.482 244.302 172.464 244.485Q172.446 244.668 172.419 244.85Q172.392 245.033 172.356 245.213Q172.32 245.394 172.275 245.572Q172.23 245.751 172.177 245.927Q172.124 246.103 172.062 246.277Q172 246.45 171.929 246.62Q171.859 246.79 171.78 246.957Q171.701 247.123 171.614 247.285Q171.528 247.448 171.433 247.606Q171.338 247.764 171.236 247.917Q171.134 248.07 171.024 248.218Q170.914 248.366 170.798 248.508Q170.681 248.65 170.557 248.787Q170.433 248.923 170.303 249.053Q170.173 249.183 170.037 249.307Q169.9 249.431 169.758 249.548Q169.616 249.664 169.468 249.774Q169.32 249.884 169.167 249.986Q169.014 250.088 168.856 250.183Q168.698 250.278 168.535 250.364Q168.373 250.451 168.207 250.53Q168.04 250.609 167.87 250.679Q167.7 250.75 167.527 250.812Q167.353 250.874 167.177 250.927Q167.001 250.98 166.822 251.025Q166.644 251.07 166.463 251.106Q166.283 251.142 166.1 251.169Q165.918 251.196 165.735 251.214Q165.552 251.232 165.368 251.241Q165.184 251.25 165 251.25L153.75 251.25L153.75 243.75Z"/>
	<text font-size="9" font-family="Sabon LT Pro" x="260.75, 265.763, 269.759, 272.75601, 276.75201, 281.75601, 284.258, 290.75601, 295.25601, 299.25201, 301.754, 305.75, 308.25198, " y="130, ">
			Fetch Cycle 2
	</text>
	<text font-size="9" font-family="Sabon LT Pro" x="260.75, 265.763, 269.759, 272.75601, 276.75201, 281.75601, 284.258, 290.75601, 295.25601, 299.25201, 301.754, 305.75, 308.25198, " y="115, ">
			Fetch Cycle 1
	</text>
	<text font-size="9" font-family="Sabon LT Pro" x="260.75, 265.763, 269.759, 272.75601, 276.75201, 281.75601, 284.258, 290.75601, 295.25601, 299.25201, 301.754, 305.75, 308.25198, " y="148.75, ">
			Fetch Cycle 3
	</text>
	<text font-size="9" font-family="Sabon LT Pro" x="260.75, 265.754, 272.25201, 274.754, 277.742, 282.746, 286.742, 290.24301, 294.23901, 301.72699, 305.72299, 310.72699, " y="179.25, ">
			PC Increment
	</text>
	<text font-size="9" font-family="Sabon LT Pro" x="260.75, 266.24899, 271.25299, 275.24899, 279.245, 281.74701, 284.24899, 290.74701, 295.24701, 299.24301, 301.745, 305.741, 308.24298, " y="227.5, ">
			Exec. Cycle 1
	</text>
	<path fill="none" stroke="black" vector-effect="non-scaling-stroke" stroke-width="1" stroke-linejoin="round" d="M189.225 285L197.025 285Q197.516 285 198.006 285.032Q198.496 285.064 198.983 285.128Q199.47 285.192 199.951 285.288Q200.433 285.384 200.907 285.511Q201.382 285.638 201.847 285.796Q202.312 285.954 202.765 286.142Q203.219 286.33 203.659 286.547Q204.1 286.764 204.525 287.01Q204.95 287.255 205.359 287.528Q205.767 287.801 206.156 288.1Q206.546 288.399 206.915 288.722Q207.284 289.046 207.632 289.393Q207.979 289.741 208.303 290.11Q208.626 290.479 208.925 290.869Q209.224 291.258 209.497 291.666Q209.77 292.075 210.015 292.5Q209.77 292.925 209.497 293.334Q209.224 293.742 208.925 294.131Q208.626 294.521 208.303 294.89Q207.979 295.259 207.632 295.607Q207.284 295.954 206.915 296.278Q206.546 296.601 206.156 296.9Q205.767 297.199 205.359 297.472Q204.95 297.745 204.525 297.99Q204.1 298.236 203.659 298.453Q203.219 298.67 202.765 298.858Q202.312 299.046 201.847 299.204Q201.382 299.362 200.907 299.489Q200.433 299.616 199.951 299.712Q199.47 299.808 198.983 299.872Q198.496 299.936 198.006 299.968Q197.516 300 197.025 300L189.225 300L189.24 300Q189.486 299.575 189.703 299.134Q189.92 298.694 190.108 298.24Q190.296 297.787 190.454 297.322Q190.612 296.857 190.739 296.382Q190.866 295.908 190.962 295.426Q191.058 294.945 191.122 294.458Q191.186 293.971 191.218 293.481Q191.25 292.991 191.25 292.5Q191.25 292.009 191.218 291.519Q191.186 291.029 191.122 290.542Q191.058 290.055 190.962 289.574Q190.866 289.092 190.739 288.618Q190.612 288.143 190.454 287.678Q190.296 287.213 190.108 286.76Q189.92 286.306 189.703 285.866Q189.486 285.425 189.24 285L189.225 285Z"/>
	<path fill="none" stroke="black" vector-effect="non-scaling-stroke" stroke-width="1" stroke-linejoin="round" d="M153.75 292.5L153.75 285L165 285Q165.184 285 165.368 285.009Q165.552 285.018 165.735 285.036Q165.918 285.054 166.1 285.081Q166.283 285.108 166.463 285.144Q166.644 285.18 166.822 285.225Q167.001 285.27 167.177 285.323Q167.353 285.376 167.527 285.438Q167.7 285.5 167.87 285.571Q168.04 285.641 168.207 285.72Q168.373 285.799 168.535 285.886Q168.698 285.972 168.856 286.067Q169.014 286.162 169.167 286.264Q169.32 286.366 169.468 286.476Q169.616 286.586 169.758 286.702Q169.9 286.819 170.037 286.943Q170.173 287.066 170.303 287.197Q170.433 287.327 170.557 287.463Q170.681 287.6 170.798 287.742Q170.914 287.884 171.024 288.032Q171.134 288.18 171.236 288.333Q171.338 288.486 171.433 288.644Q171.528 288.802 171.614 288.965Q171.701 289.127 171.78 289.293Q171.859 289.46 171.929 289.63Q172 289.8 172.062 289.973Q172.124 290.147 172.177 290.323Q172.23 290.499 172.275 290.678Q172.32 290.856 172.356 291.037Q172.392 291.217 172.419 291.4Q172.446 291.582 172.464 291.765Q172.482 291.948 172.491 292.132Q172.5 292.316 172.5 292.5Q172.5 292.684 172.491 292.868Q172.482 293.052 172.464 293.235Q172.446 293.418 172.419 293.6Q172.392 293.783 172.356 293.963Q172.32 294.144 172.275 294.322Q172.23 294.501 172.177 294.677Q172.124 294.853 172.062 295.027Q172 295.2 171.929 295.37Q171.859 295.54 171.78 295.707Q171.701 295.873 171.614 296.035Q171.528 296.198 171.433 296.356Q171.338 296.514 171.236 296.667Q171.134 296.82 171.024 296.968Q170.914 297.116 170.798 297.258Q170.681 297.4 170.557 297.537Q170.433 297.673 170.303 297.803Q170.173 297.933 170.037 298.057Q169.9 298.181 169.758 298.298Q169.616 298.414 169.468 298.524Q169.32 298.634 169.167 298.736Q169.014 298.838 168.856 298.933Q168.698 299.028 168.535 299.114Q168.373 299.201 168.207 299.28Q168.04 299.359 167.87 299.429Q167.7 299.499 167.527 299.562Q167.353 299.624 167.177 299.677Q167.001 299.73 166.822 299.775Q166.644 299.82 166.463 299.856Q166.283 299.892 166.1 299.919Q165.918 299.946 165.735 299.964Q165.552 299.982 165.368 299.991Q165.184 300 165 300L153.75 300L153.75 292.5Z"/>
	<path fill="none" stroke="black" vector-effect="non-scaling-stroke" stroke-width="1" stroke-linejoin="round" d="M153.75 273.75L153.75 266.25L165 266.25Q165.184 266.25 165.368 266.259Q165.552 266.268 165.735 266.286Q165.918 266.304 166.1 266.331Q166.283 266.358 166.463 266.394Q166.644 266.43 166.822 266.475Q167.001 266.52 167.177 266.573Q167.353 266.626 167.527 266.688Q167.7 266.75 167.87 266.821Q168.04 266.891 168.207 266.97Q168.373 267.049 168.535 267.136Q168.698 267.222 168.856 267.317Q169.014 267.412 169.167 267.514Q169.32 267.616 169.468 267.726Q169.616 267.836 169.758 267.952Q169.9 268.069 170.037 268.193Q170.173 268.316 170.303 268.447Q170.433 268.577 170.557 268.713Q170.681 268.85 170.798 268.992Q170.914 269.134 171.024 269.282Q171.134 269.43 171.236 269.583Q171.338 269.736 171.433 269.894Q171.528 270.052 171.614 270.215Q171.701 270.377 171.78 270.543Q171.859 270.71 171.929 270.88Q172 271.05 172.062 271.223Q172.124 271.397 172.177 271.573Q172.23 271.749 172.275 271.928Q172.32 272.106 172.356 272.287Q172.392 272.467 172.419 272.65Q172.446 272.832 172.464 273.015Q172.482 273.198 172.491 273.382Q172.5 273.566 172.5 273.75Q172.5 273.934 172.491 274.118Q172.482 274.302 172.464 274.485Q172.446 274.668 172.419 274.85Q172.392 275.033 172.356 275.213Q172.32 275.394 172.275 275.572Q172.23 275.751 172.177 275.927Q172.124 276.103 172.062 276.277Q172 276.45 171.929 276.62Q171.859 276.79 171.78 276.957Q171.701 277.123 171.614 277.285Q171.528 277.448 171.433 277.606Q171.338 277.764 171.236 277.917Q171.134 278.07 171.024 278.218Q170.914 278.366 170.798 278.508Q170.681 278.65 170.557 278.787Q170.433 278.923 170.303 279.053Q170.173 279.183 170.037 279.307Q169.9 279.431 169.758 279.548Q169.616 279.664 169.468 279.774Q169.32 279.884 169.167 279.986Q169.014 280.088 168.856 280.183Q168.698 280.278 168.535 280.364Q168.373 280.451 168.207 280.53Q168.04 280.609 167.87 280.679Q167.7 280.749 167.527 280.812Q167.353 280.874 167.177 280.927Q167.001 280.98 166.822 281.025Q166.644 281.07 166.463 281.106Q166.283 281.142 166.1 281.169Q165.918 281.196 165.735 281.214Q165.552 281.232 165.368 281.241Q165.184 281.25 165 281.25L153.75 281.25L153.75 273.75Z"/>
	<path fill="none" stroke="black" vector-effect="non-scaling-stroke" stroke-width="1" stroke-linejoin="round" d="M153.75 311.25L153.75 303.75L165 303.75Q165.184 303.75 165.368 303.759Q165.552 303.768 165.735 303.786Q165.918 303.804 166.1 303.831Q166.283 303.858 166.463 303.894Q166.644 303.93 166.822 303.975Q167.001 304.02 167.177 304.073Q167.353 304.126 167.527 304.188Q167.7 304.25 167.87 304.321Q168.04 304.391 168.207 304.47Q168.373 304.549 168.535 304.636Q168.698 304.722 168.856 304.817Q169.014 304.912 169.167 305.014Q169.32 305.116 169.468 305.226Q169.616 305.336 169.758 305.452Q169.9 305.569 170.037 305.693Q170.173 305.816 170.303 305.947Q170.433 306.077 170.557 306.213Q170.681 306.35 170.798 306.492Q170.914 306.634 171.024 306.782Q171.134 306.93 171.236 307.083Q171.338 307.236 171.433 307.394Q171.528 307.552 171.614 307.714Q171.701 307.877 171.78 308.043Q171.859 308.21 171.929 308.38Q172 308.55 172.062 308.723Q172.124 308.897 172.177 309.073Q172.23 309.249 172.275 309.428Q172.32 309.606 172.356 309.787Q172.392 309.967 172.419 310.15Q172.446 310.332 172.464 310.515Q172.482 310.698 172.491 310.882Q172.5 311.066 172.5 311.25Q172.5 311.434 172.491 311.618Q172.482 311.802 172.464 311.985Q172.446 312.168 172.419 312.35Q172.392 312.533 172.356 312.713Q172.32 312.894 172.275 313.072Q172.23 313.251 172.177 313.427Q172.124 313.603 172.062 313.777Q172 313.95 171.929 314.12Q171.859 314.29 171.78 314.457Q171.701 314.623 171.614 314.785Q171.528 314.948 171.433 315.106Q171.338 315.264 171.236 315.417Q171.134 315.57 171.024 315.718Q170.914 315.866 170.798 316.008Q170.681 316.15 170.557 316.287Q170.433 316.423 170.303 316.553Q170.173 316.683 170.037 316.807Q169.9 316.931 169.758 317.048Q169.616 317.164 169.468 317.274Q169.32 317.384 169.167 317.486Q169.014 317.588 168.856 317.683Q168.698 317.778 168.535 317.864Q168.373 317.951 168.207 318.03Q168.04 318.109 167.87 318.179Q167.7 318.25 167.527 318.312Q167.353 318.374 167.177 318.427Q167.001 318.48 166.822 318.525Q166.644 318.57 166.463 318.606Q166.283 318.642 166.1 318.669Q165.918 318.696 165.735 318.714Q165.552 318.732 165.368 318.741Q165.184 318.75 165 318.75L153.75 318.75L153.75 311.25Z"/>
	<path fill="none" stroke="black" vector-effect="non-scaling-stroke" stroke-width="1" stroke-linejoin="round" d="M189.225 352.5L197.025 352.5Q197.516 352.5 198.006 352.532Q198.496 352.564 198.983 352.628Q199.47 352.692 199.951 352.788Q200.433 352.884 200.907 353.011Q201.382 353.138 201.847 353.296Q202.312 353.454 202.765 353.642Q203.219 353.83 203.659 354.047Q204.1 354.264 204.525 354.51Q204.95 354.755 205.359 355.028Q205.767 355.301 206.156 355.6Q206.546 355.899 206.915 356.222Q207.284 356.546 207.632 356.893Q207.979 357.241 208.303 357.61Q208.626 357.979 208.925 358.369Q209.224 358.758 209.497 359.166Q209.77 359.575 210.015 360Q209.77 360.425 209.497 360.834Q209.224 361.242 208.925 361.631Q208.626 362.021 208.303 362.39Q207.979 362.759 207.632 363.107Q207.284 363.454 206.915 363.778Q206.546 364.101 206.156 364.4Q205.767 364.699 205.359 364.972Q204.95 365.245 204.525 365.49Q204.1 365.736 203.659 365.953Q203.219 366.17 202.765 366.358Q202.312 366.546 201.847 366.704Q201.382 366.862 200.907 366.989Q200.433 367.116 199.951 367.212Q199.47 367.308 198.983 367.372Q198.496 367.436 198.006 367.468Q197.516 367.5 197.025 367.5L189.225 367.5L189.24 367.5Q189.486 367.075 189.703 366.634Q189.92 366.194 190.108 365.74Q190.296 365.287 190.454 364.822Q190.612 364.357 190.739 363.882Q190.866 363.408 190.962 362.926Q191.058 362.445 191.122 361.958Q191.186 361.471 191.218 360.981Q191.25 360.491 191.25 360Q191.25 359.509 191.218 359.019Q191.186 358.529 191.122 358.042Q191.058 357.555 190.962 357.074Q190.866 356.592 190.739 356.118Q190.612 355.643 190.454 355.178Q190.296 354.713 190.108 354.26Q189.92 353.806 189.703 353.366Q189.486 352.925 189.24 352.5L189.225 352.5Z"/>
	<path fill="none" stroke="black" vector-effect="non-scaling-stroke" stroke-width="1" stroke-linejoin="round" d="M153.75 360L153.75 352.5L165 352.5Q165.184 352.5 165.368 352.509Q165.552 352.518 165.735 352.536Q165.918 352.554 166.1 352.581Q166.283 352.608 166.463 352.644Q166.644 352.68 166.822 352.725Q167.001 352.77 167.177 352.823Q167.353 352.876 167.527 352.938Q167.7 353 167.87 353.071Q168.04 353.141 168.207 353.22Q168.373 353.299 168.535 353.386Q168.698 353.472 168.856 353.567Q169.014 353.662 169.167 353.764Q169.32 353.866 169.468 353.976Q169.616 354.086 169.758 354.202Q169.9 354.319 170.037 354.443Q170.173 354.566 170.303 354.697Q170.433 354.827 170.557 354.963Q170.681 355.1 170.798 355.242Q170.914 355.384 171.024 355.532Q171.134 355.68 171.236 355.833Q171.338 355.986 171.433 356.144Q171.528 356.302 171.614 356.464Q171.701 356.627 171.78 356.793Q171.859 356.96 171.929 357.13Q172 357.3 172.062 357.473Q172.124 357.647 172.177 357.823Q172.23 357.999 172.275 358.178Q172.32 358.356 172.356 358.537Q172.392 358.717 172.419 358.9Q172.446 359.082 172.464 359.265Q172.482 359.448 172.491 359.632Q172.5 359.816 172.5 360Q172.5 360.184 172.491 360.368Q172.482 360.552 172.464 360.735Q172.446 360.918 172.419 361.1Q172.392 361.283 172.356 361.463Q172.32 361.644 172.275 361.822Q172.23 362.001 172.177 362.177Q172.124 362.353 172.062 362.527Q172 362.7 171.929 362.87Q171.859 363.04 171.78 363.207Q171.701 363.373 171.614 363.535Q171.528 363.698 171.433 363.856Q171.338 364.014 171.236 364.167Q171.134 364.32 171.024 364.468Q170.914 364.616 170.798 364.758Q170.681 364.9 170.557 365.037Q170.433 365.173 170.303 365.303Q170.173 365.433 170.037 365.557Q169.9 365.681 169.758 365.798Q169.616 365.914 169.468 366.024Q169.32 366.134 169.167 366.236Q169.014 366.338 168.856 366.433Q168.698 366.528 168.535 366.614Q168.373 366.701 168.207 366.78Q168.04 366.859 167.87 366.929Q167.7 366.999 167.527 367.062Q167.353 367.124 167.177 367.177Q167.001 367.23 166.822 367.275Q166.644 367.32 166.463 367.356Q166.283 367.392 166.1 367.419Q165.918 367.446 165.735 367.464Q165.552 367.482 165.368 367.491Q165.184 367.5 165 367.5L153.75 367.5L153.75 360Z"/>
	<path fill="none" stroke="black" vector-effect="non-scaling-stroke" stroke-width="1" stroke-linejoin="round" d="M153.75 341.25L153.75 333.75L165 333.75Q165.184 333.75 165.368 333.759Q165.552 333.768 165.735 333.786Q165.918 333.804 166.1 333.831Q166.283 333.858 166.463 333.894Q166.644 333.93 166.822 333.975Q167.001 334.02 167.177 334.073Q167.353 334.126 167.527 334.188Q167.7 334.25 167.87 334.321Q168.04 334.391 168.207 334.47Q168.373 334.549 168.535 334.636Q168.698 334.722 168.856 334.817Q169.014 334.912 169.167 335.014Q169.32 335.116 169.468 335.226Q169.616 335.336 169.758 335.452Q169.9 335.569 170.037 335.693Q170.173 335.816 170.303 335.947Q170.433 336.077 170.557 336.213Q170.681 336.35 170.798 336.492Q170.914 336.634 171.024 336.782Q171.134 336.93 171.236 337.083Q171.338 337.236 171.433 337.394Q171.528 337.552 171.614 337.715Q171.701 337.877 171.78 338.043Q171.859 338.21 171.929 338.38Q172 338.55 172.062 338.723Q172.124 338.897 172.177 339.073Q172.23 339.249 172.275 339.428Q172.32 339.606 172.356 339.787Q172.392 339.967 172.419 340.15Q172.446 340.332 172.464 340.515Q172.482 340.698 172.491 340.882Q172.5 341.066 172.5 341.25Q172.5 341.434 172.491 341.618Q172.482 341.802 172.464 341.985Q172.446 342.168 172.419 342.35Q172.392 342.533 172.356 342.713Q172.32 342.894 172.275 343.072Q172.23 343.251 172.177 343.427Q172.124 343.603 172.062 343.777Q172 343.95 171.929 344.12Q171.859 344.29 171.78 344.457Q171.701 344.623 171.614 344.785Q171.528 344.948 171.433 345.106Q171.338 345.264 171.236 345.417Q171.134 345.57 171.024 345.718Q170.914 345.866 170.798 346.008Q170.681 346.15 170.557 346.287Q170.433 346.423 170.303 346.553Q170.173 346.683 170.037 346.807Q169.9 346.931 169.758 347.048Q169.616 347.164 169.468 347.274Q169.32 347.384 169.167 347.486Q169.014 347.588 168.856 347.683Q168.698 347.778 168.535 347.864Q168.373 347.951 168.207 348.03Q168.04 348.109 167.87 348.179Q167.7 348.25 167.527 348.312Q167.353 348.374 167.177 348.427Q167.001 348.48 166.822 348.525Q166.644 348.57 166.463 348.606Q166.283 348.642 166.1 348.669Q165.918 348.696 165.735 348.714Q165.552 348.732 165.368 348.741Q165.184 348.75 165 348.75L153.75 348.75L153.75 341.25Z"/>
	<path fill="none" stroke="black" vector-effect="non-scaling-stroke" stroke-width="1" stroke-linejoin="round" d="M153.75 378.75L153.75 371.25L165 371.25Q165.184 371.25 165.368 371.259Q165.552 371.268 165.735 371.286Q165.918 371.304 166.1 371.331Q166.283 371.358 166.463 371.394Q166.644 371.43 166.822 371.475Q167.001 371.519 167.177 371.573Q167.353 371.626 167.527 371.688Q167.7 371.75 167.87 371.821Q168.04 371.891 168.207 371.97Q168.373 372.049 168.535 372.136Q168.698 372.222 168.856 372.317Q169.014 372.412 169.167 372.514Q169.32 372.616 169.468 372.726Q169.616 372.836 169.758 372.952Q169.9 373.069 170.037 373.193Q170.173 373.316 170.303 373.447Q170.433 373.577 170.557 373.713Q170.681 373.85 170.798 373.992Q170.914 374.134 171.024 374.282Q171.134 374.43 171.236 374.583Q171.338 374.736 171.433 374.894Q171.528 375.052 171.614 375.215Q171.701 375.377 171.78 375.543Q171.859 375.71 171.929 375.88Q172 376.05 172.062 376.223Q172.124 376.397 172.177 376.573Q172.23 376.749 172.275 376.928Q172.32 377.106 172.356 377.287Q172.392 377.467 172.419 377.65Q172.446 377.832 172.464 378.015Q172.482 378.198 172.491 378.382Q172.5 378.566 172.5 378.75Q172.5 378.934 172.491 379.118Q172.482 379.302 172.464 379.485Q172.446 379.668 172.419 379.85Q172.392 380.033 172.356 380.213Q172.32 380.394 172.275 380.572Q172.23 380.751 172.177 380.927Q172.124 381.103 172.062 381.277Q172 381.45 171.929 381.62Q171.859 381.79 171.78 381.957Q171.701 382.123 171.614 382.285Q171.528 382.448 171.433 382.606Q171.338 382.764 171.236 382.917Q171.134 383.07 171.024 383.218Q170.914 383.366 170.798 383.508Q170.681 383.65 170.557 383.787Q170.433 383.923 170.303 384.053Q170.173 384.184 170.037 384.307Q169.9 384.431 169.758 384.548Q169.616 384.664 169.468 384.774Q169.32 384.884 169.167 384.986Q169.014 385.088 168.856 385.183Q168.698 385.278 168.535 385.364Q168.373 385.451 168.207 385.53Q168.04 385.609 167.87 385.679Q167.7 385.75 167.527 385.812Q167.353 385.874 167.177 385.927Q167.001 385.98 166.822 386.025Q166.644 386.07 166.463 386.106Q166.283 386.142 166.1 386.169Q165.918 386.196 165.735 386.214Q165.552 386.232 165.368 386.241Q165.184 386.25 165 386.25L153.75 386.25L153.75 378.75Z"/>
	<text font-size="9" font-family="Sabon LT Pro" x="3.5060005, 10.004001, 14.504001, 18.5, 21.002001, 24.998001, 27.500002, 33.998001, 36.5, 41.504002, 45.5, " y="25, ">
			Cycle Clock
	</text>
	<text font-size="9" font-family="Sabon LT Pro" x="3.5060043, 10.004004, 14.000005, 17.501005, 21.497005, " y="10.5, ">
			Reset
	</text>
	<path fill="none" stroke="black" vector-effect="non-scaling-stroke" stroke-width="1" stroke-linejoin="round" d="M212.025 30L204.225 30Q203.734 30 203.244 29.9679Q202.754 29.9358 202.267 29.8717Q201.78 29.8076 201.299 29.7118Q200.817 29.616 200.343 29.4889Q199.868 29.3618 199.403 29.204Q198.938 29.0461 198.485 28.8582Q198.031 28.6703 197.591 28.4531Q197.15 28.2359 196.725 27.9904Q196.3 27.7449 195.891 27.472Q195.483 27.1992 195.094 26.9003Q194.704 26.6014 194.335 26.2776Q193.966 25.9538 193.618 25.6066Q193.271 25.2594 192.947 24.8902Q192.624 24.521 192.325 24.1314Q192.026 23.7419 191.753 23.3336Q191.48 22.9253 191.235 22.5Q191.48 22.0747 191.753 21.6665Q192.026 21.2582 192.325 20.8686Q192.624 20.479 192.947 20.1098Q193.271 19.7406 193.618 19.3934Q193.966 19.0462 194.335 18.7224Q194.704 18.3986 195.094 18.0997Q195.483 17.8008 195.891 17.528Q196.3 17.2551 196.725 17.0096Q197.15 16.7641 197.591 16.5469Q198.031 16.3297 198.485 16.1418Q198.938 15.9539 199.403 15.7961Q199.868 15.6382 200.343 15.5111Q200.817 15.384 201.299 15.2882Q201.78 15.1924 202.267 15.1283Q202.754 15.0642 203.244 15.0321Q203.734 15 204.225 15L212.025 15L212.01 15Q211.764 15.4253 211.547 15.8657Q211.33 16.3061 211.142 16.7597Q210.954 17.2134 210.796 17.6784Q210.638 18.1434 210.511 18.6177Q210.384 19.092 210.288 19.5736Q210.192 20.0553 210.128 20.5421Q210.064 21.029 210.032 21.519Q210 22.009 210 22.5Q210 22.991 210.032 23.481Q210.064 23.971 210.128 24.4579Q210.192 24.9447 210.288 25.4264Q210.384 25.908 210.511 26.3823Q210.638 26.8566 210.796 27.3216Q210.954 27.7866 211.142 28.2403Q211.33 28.6939 211.547 29.1343Q211.764 29.5747 212.01 30L212.025 30Z"/>
	<path fill="none" stroke="black" vector-effect="non-scaling-stroke" stroke-width="1" stroke-linejoin="round" d="M232.5 288.75L232.5 281.25L243.75 281.25Q243.934 281.25 244.118 281.259Q244.302 281.268 244.485 281.286Q244.668 281.304 244.85 281.331Q245.033 281.358 245.213 281.394Q245.394 281.43 245.572 281.475Q245.751 281.52 245.927 281.573Q246.103 281.626 246.277 281.688Q246.45 281.75 246.62 281.821Q246.79 281.891 246.957 281.97Q247.123 282.049 247.285 282.136Q247.448 282.222 247.606 282.317Q247.764 282.412 247.917 282.514Q248.07 282.616 248.218 282.726Q248.366 282.836 248.508 282.952Q248.65 283.069 248.787 283.193Q248.923 283.316 249.053 283.447Q249.183 283.577 249.307 283.713Q249.431 283.85 249.548 283.992Q249.664 284.134 249.774 284.282Q249.884 284.43 249.986 284.583Q250.088 284.736 250.183 284.894Q250.278 285.052 250.364 285.215Q250.451 285.377 250.53 285.543Q250.609 285.71 250.679 285.88Q250.75 286.05 250.812 286.223Q250.874 286.397 250.927 286.573Q250.98 286.749 251.025 286.928Q251.07 287.106 251.106 287.287Q251.142 287.467 251.169 287.65Q251.196 287.832 251.214 288.015Q251.232 288.198 251.241 288.382Q251.25 288.566 251.25 288.75Q251.25 288.934 251.241 289.118Q251.232 289.302 251.214 289.485Q251.196 289.668 251.169 289.85Q251.142 290.033 251.106 290.213Q251.07 290.394 251.025 290.572Q250.98 290.751 250.927 290.927Q250.874 291.103 250.812 291.277Q250.75 291.45 250.679 291.62Q250.609 291.79 250.53 291.957Q250.451 292.123 250.364 292.285Q250.278 292.448 250.183 292.606Q250.088 292.764 249.986 292.917Q249.884 293.07 249.774 293.218Q249.664 293.366 249.548 293.508Q249.431 293.65 249.307 293.787Q249.183 293.923 249.053 294.053Q248.923 294.183 248.787 294.307Q248.65 294.431 248.508 294.548Q248.366 294.664 248.218 294.774Q248.07 294.884 247.917 294.986Q247.764 295.088 247.606 295.183Q247.448 295.278 247.285 295.364Q247.123 295.451 246.957 295.53Q246.79 295.609 246.62 295.679Q246.45 295.75 246.277 295.812Q246.103 295.874 245.927 295.927Q245.751 295.98 245.572 296.025Q245.394 296.07 245.213 296.106Q245.033 296.142 244.85 296.169Q244.668 296.196 244.485 296.214Q244.302 296.232 244.118 296.241Q243.934 296.25 243.75 296.25L232.5 296.25L232.5 288.75Z"/>
	<path fill="none" stroke="black" vector-effect="non-scaling-stroke" stroke-width="1" stroke-linejoin="round" d="M232.5 356.25L232.5 348.75L243.75 348.75Q243.934 348.75 244.118 348.759Q244.302 348.768 244.485 348.786Q244.668 348.804 244.85 348.831Q245.033 348.858 245.213 348.894Q245.394 348.93 245.572 348.975Q245.751 349.02 245.927 349.073Q246.103 349.126 246.277 349.188Q246.45 349.25 246.62 349.321Q246.79 349.391 246.957 349.47Q247.123 349.549 247.285 349.636Q247.448 349.722 247.606 349.817Q247.764 349.912 247.917 350.014Q248.07 350.116 248.218 350.226Q248.366 350.336 248.508 350.452Q248.65 350.569 248.787 350.693Q248.923 350.816 249.053 350.947Q249.183 351.077 249.307 351.213Q249.431 351.35 249.548 351.492Q249.664 351.634 249.774 351.782Q249.884 351.93 249.986 352.083Q250.088 352.236 250.183 352.394Q250.278 352.552 250.364 352.714Q250.451 352.877 250.53 353.043Q250.609 353.21 250.679 353.38Q250.75 353.55 250.812 353.723Q250.874 353.897 250.927 354.073Q250.98 354.249 251.025 354.428Q251.07 354.606 251.106 354.787Q251.142 354.967 251.169 355.15Q251.196 355.332 251.214 355.515Q251.232 355.698 251.241 355.882Q251.25 356.066 251.25 356.25Q251.25 356.434 251.241 356.618Q251.232 356.802 251.214 356.985Q251.196 357.168 251.169 357.35Q251.142 357.533 251.106 357.713Q251.07 357.894 251.025 358.072Q250.98 358.251 250.927 358.427Q250.874 358.603 250.812 358.777Q250.75 358.95 250.679 359.12Q250.609 359.29 250.53 359.457Q250.451 359.623 250.364 359.785Q250.278 359.948 250.183 360.106Q250.088 360.264 249.986 360.417Q249.884 360.57 249.774 360.718Q249.664 360.866 249.548 361.008Q249.431 361.15 249.307 361.287Q249.183 361.423 249.053 361.553Q248.923 361.683 248.787 361.807Q248.65 361.931 248.508 362.048Q248.366 362.164 248.218 362.274Q248.07 362.384 247.917 362.486Q247.764 362.588 247.606 362.683Q247.448 362.778 247.285 362.864Q247.123 362.951 246.957 363.03Q246.79 363.109 246.62 363.179Q246.45 363.25 246.277 363.312Q246.103 363.374 245.927 363.427Q245.751 363.48 245.572 363.525Q245.394 363.57 245.213 363.606Q245.033 363.642 244.85 363.669Q244.668 363.696 244.485 363.714Q244.302 363.732 244.118 363.741Q243.934 363.75 243.75 363.75L232.5 363.75L232.5 356.25Z"/>
	<text font-size="9" font-family="Sabon LT Pro" x="260.75, 266.24899, 271.25299, 275.24899, 279.245, 281.74701, 284.24899, 290.74701, 295.24701, 299.24301, 301.745, 305.741, 308.24298, " y="291.25, ">
			Exec. Cycle 2
	</text>
	<text font-size="9" font-family="Sabon LT Pro" x="3.5060043, 8.510004, 11.507005, 17.006004, 21.506004, 24.503004, 28.499004, 31.001005, 36.014004, 40.010002, 43.007004, 47.003002, " y="133.75, ">
			1-Byte Fetch
	</text>
	<path fill="none" stroke="black" vector-effect="non-scaling-stroke" stroke-width="1" stroke-linejoin="round" d="M3.506 124.75L52.003 124.75"/>
	<text font-size="9" font-family="Sabon LT Pro" x="3.5060043, 8.510004, 11.507005, 17.006004, 21.506004, 24.503004, 28.499004, 31.001005, 36.014004, 40.010002, 43.007004, 47.003002, " y="152.5, ">
			3-Byte Fetch
	</text>
	<text font-size="9" font-family="Sabon LT Pro" x="3.5060043, 8.510004, 11.507005, 17.006004, 21.506004, 24.503004, 28.499004, 31.001005, 36.014004, 40.010002, 43.007004, 47.003002, " y="171.25, ">
			2-Byte Fetch
	</text>
	<text font-size="9" font-family="Sabon LT Pro" x="3.5060043, 8.510004, 11.507005, 17.006004, 21.506004, 24.503004, 28.499004, 31.001005, 36.014004, 40.010002, 43.007004, 47.003002, " y="212.5, ">
			1-Byte Fetch
	</text>
	<text font-size="9" font-family="Sabon LT Pro" x="3.5060043, 8.510004, 11.507005, 18.005005, 22.505005, 26.501005, 29.003006, 32.999008, 35.501007, 41.000008, 46.004009, 50.000008, 53.996006, 59.000008, 61.997009, " y="261.25, ">
			2-Cycle Execute
	</text>
	<text font-size="9" font-family="Sabon LT Pro" x="3.5060043, 8.510004, 11.507005, 18.005005, 22.505005, 26.501005, 29.003006, 32.999008, 35.501007, 41.000008, 46.004009, 50.000008, 53.996006, 59.000008, 61.997009, " y="328.75, ">
			1-Cycle Execute
	</text>
	<ellipse cx="100.3125" cy="131.25" rx="2" ry="2"/>
	<ellipse cx="139.6875" cy="123.75" rx="2" ry="2"/>
	<ellipse cx="134.0625" cy="161.25" rx="2" ry="2"/>
	<ellipse cx="128.4375" cy="142.5" rx="2" ry="2"/>
	<ellipse cx="128.4375" cy="221.25" rx="2" ry="2"/>
	<ellipse cx="122.8125" cy="183.75" rx="2" ry="2"/>
	<ellipse cx="117.1875" cy="240" rx="2" ry="2"/>
	<ellipse cx="100.3125" cy="210" rx="2" ry="2"/>
	<ellipse cx="100.3125" cy="277.5" rx="2" ry="2"/>
	<ellipse cx="94.6875" cy="228.75" rx="2" ry="2"/>
	<ellipse cx="94.6875" cy="296.25" rx="2" ry="2"/>
	<ellipse cx="89.0625" cy="150" rx="2" ry="2"/>
	<ellipse cx="89.0625" cy="191.25" rx="2" ry="2"/>
	<ellipse cx="89.0625" cy="247.5" rx="2" ry="2"/>
	<ellipse cx="89.0625" cy="315" rx="2" ry="2"/>
	<path fill="none" stroke="black" vector-effect="non-scaling-stroke" stroke-width="1" stroke-linejoin="round" d="M232.5 322.5L232.5 315L243.75 315Q243.934 315 244.118 315.009Q244.302 315.018 244.485 315.036Q244.668 315.054 244.85 315.081Q245.033 315.108 245.213 315.144Q245.394 315.18 245.572 315.225Q245.751 315.27 245.927 315.323Q246.103 315.376 246.277 315.438Q246.45 315.5 246.62 315.571Q246.79 315.641 246.957 315.72Q247.123 315.799 247.285 315.886Q247.448 315.972 247.606 316.067Q247.764 316.162 247.917 316.264Q248.07 316.366 248.218 316.476Q248.366 316.586 248.508 316.702Q248.65 316.819 248.787 316.943Q248.923 317.066 249.053 317.197Q249.183 317.327 249.307 317.463Q249.431 317.6 249.548 317.742Q249.664 317.884 249.774 318.032Q249.884 318.18 249.986 318.333Q250.088 318.486 250.183 318.644Q250.278 318.802 250.364 318.965Q250.451 319.127 250.53 319.293Q250.609 319.46 250.679 319.63Q250.75 319.8 250.812 319.973Q250.874 320.147 250.927 320.323Q250.98 320.499 251.025 320.678Q251.07 320.856 251.106 321.037Q251.142 321.217 251.169 321.4Q251.196 321.582 251.214 321.765Q251.232 321.948 251.241 322.132Q251.25 322.316 251.25 322.5Q251.25 322.684 251.241 322.868Q251.232 323.052 251.214 323.235Q251.196 323.418 251.169 323.6Q251.142 323.783 251.106 323.963Q251.07 324.144 251.025 324.322Q250.98 324.501 250.927 324.677Q250.874 324.853 250.812 325.027Q250.75 325.2 250.679 325.37Q250.609 325.54 250.53 325.707Q250.451 325.873 250.364 326.035Q250.278 326.198 250.183 326.356Q250.088 326.514 249.986 326.667Q249.884 326.82 249.774 326.968Q249.664 327.116 249.548 327.258Q249.431 327.4 249.307 327.537Q249.183 327.673 249.053 327.803Q248.923 327.933 248.787 328.057Q248.65 328.181 248.508 328.298Q248.366 328.414 248.218 328.524Q248.07 328.634 247.917 328.736Q247.764 328.838 247.606 328.933Q247.448 329.028 247.285 329.114Q247.123 329.201 246.957 329.28Q246.79 329.359 246.62 329.429Q246.45 329.5 246.277 329.562Q246.103 329.624 245.927 329.677Q245.751 329.73 245.572 329.775Q245.394 329.82 245.213 329.856Q245.033 329.892 244.85 329.919Q244.668 329.946 244.485 329.964Q244.302 329.982 244.118 329.991Q243.934 330 243.75 330L232.5 330L232.5 322.5Z"/>
	<path fill="none" stroke="black" vector-effect="non-scaling-stroke" stroke-width="1" stroke-linejoin="round" d="M264.225 331.5L272.025 331.5Q272.516 331.5 273.006 331.532Q273.496 331.564 273.983 331.628Q274.47 331.692 274.951 331.788Q275.433 331.884 275.907 332.011Q276.382 332.138 276.847 332.296Q277.312 332.454 277.765 332.642Q278.219 332.83 278.659 333.047Q279.1 333.264 279.525 333.51Q279.95 333.755 280.359 334.028Q280.767 334.301 281.156 334.6Q281.546 334.899 281.915 335.222Q282.284 335.546 282.632 335.893Q282.979 336.241 283.303 336.61Q283.626 336.979 283.925 337.369Q284.224 337.758 284.497 338.166Q284.77 338.575 285.015 339Q284.77 339.425 284.497 339.834Q284.224 340.242 283.925 340.631Q283.626 341.021 283.303 341.39Q282.979 341.759 282.632 342.107Q282.284 342.454 281.915 342.778Q281.546 343.101 281.156 343.4Q280.767 343.699 280.359 343.972Q279.95 344.245 279.525 344.49Q279.1 344.736 278.659 344.953Q278.219 345.17 277.765 345.358Q277.312 345.546 276.847 345.704Q276.382 345.862 275.907 345.989Q275.433 346.116 274.951 346.212Q274.47 346.308 273.983 346.372Q273.496 346.436 273.006 346.468Q272.516 346.5 272.025 346.5L264.225 346.5L264.24 346.5Q264.486 346.075 264.703 345.634Q264.92 345.194 265.108 344.74Q265.296 344.287 265.454 343.822Q265.612 343.357 265.739 342.882Q265.866 342.408 265.962 341.926Q266.058 341.445 266.122 340.958Q266.186 340.471 266.218 339.981Q266.25 339.491 266.25 339Q266.25 338.509 266.218 338.019Q266.186 337.529 266.122 337.042Q266.058 336.555 265.962 336.074Q265.866 335.592 265.739 335.118Q265.612 334.643 265.454 334.178Q265.296 333.713 265.108 333.26Q264.92 332.806 264.703 332.366Q264.486 331.925 264.24 331.5L264.225 331.5Z"/>
	<ellipse cx="217.5" cy="285" rx="2" ry="2"/>
	<ellipse cx="225" cy="292.5" rx="2" ry="2"/>
</svg>
